<?xml version="1.0" standalone="no"?>
<!DOCTYPE svg PUBLIC "-//W3C//DTD SVG 20010904//EN"
 "http://www.w3.org/TR/2001/REC-SVG-20010904/DTD/svg10.dtd">
<svg version="1.0" xmlns="http://www.w3.org/2000/svg"
 width="1563.000000pt" height="1563.000000pt" viewBox="0 0 1563.000000 1563.000000"
 preserveAspectRatio="xMidYMid meet">

<g transform="translate(0.000000,1563.000000) scale(0.100000,-0.100000)"
fill="#000000" stroke="none">
<path d="M6785 9691 c-60 -15 -120 -60 -175 -132 -49 -65 -110 -136 -193 -224
-16 -16 -41 -55 -57 -85 -15 -30 -37 -64 -49 -74 -44 -40 -23 -82 62 -130 94
-53 155 -104 207 -172 42 -55 49 -71 61 -145 21 -134 17 -468 -9 -604 -11 -60
-23 -144 -26 -185 -3 -42 -12 -94 -20 -117 -8 -22 -19 -83 -25 -134 -7 -52
-18 -116 -26 -144 -7 -27 -17 -75 -20 -105 -4 -30 -15 -98 -25 -150 -47 -238
-60 -313 -75 -425 -19 -151 -22 -164 -51 -310 -14 -66 -31 -156 -39 -201 -7
-44 -20 -103 -28 -130 -22 -72 -37 -206 -37 -322 0 -116 5 -123 90 -138 l45
-8 -44 -8 c-25 -4 -51 -14 -58 -21 -39 -39 10 -180 77 -224 19 -12 42 -29 50
-36 15 -13 116 -49 177 -62 46 -9 99 9 129 44 14 17 55 50 92 75 121 81 302
275 302 323 0 7 -12 32 -27 55 -165 245 -183 291 -183 452 0 61 5 129 10 151
5 22 15 94 21 160 6 66 19 153 30 194 10 41 19 95 19 121 0 25 7 70 15 100 9
30 20 84 26 120 6 36 19 97 29 135 10 39 22 102 25 140 4 39 14 83 22 98 7 15
18 63 23 107 5 44 16 92 24 109 9 16 20 73 25 127 5 55 17 118 25 142 9 24 19
73 22 110 4 37 15 89 25 115 11 26 19 62 19 79 0 17 8 45 19 62 10 17 24 49
31 71 7 22 21 51 31 64 11 13 19 28 19 34 0 21 75 121 133 179 214 212 386
281 548 219 88 -34 130 -91 174 -234 30 -101 54 -252 55 -347 0 -81 -36 -403
-54 -485 -8 -33 -17 -85 -21 -115 -4 -30 -13 -70 -21 -89 -8 -18 -18 -70 -23
-115 -6 -44 -17 -98 -25 -118 -9 -20 -19 -63 -22 -95 -4 -32 -15 -78 -24 -103
-9 -25 -20 -75 -24 -112 -3 -37 -15 -86 -26 -110 -11 -24 -20 -62 -20 -85 0
-23 -9 -64 -19 -90 -10 -27 -22 -84 -26 -128 -4 -44 -14 -96 -22 -115 -8 -19
-19 -76 -24 -127 -5 -51 -17 -109 -26 -130 -10 -25 -18 -90 -24 -193 -4 -85
-13 -179 -18 -209 -14 -67 -14 -203 -1 -256 5 -22 14 -68 20 -103 17 -102 91
-184 237 -261 37 -19 84 -13 127 17 232 157 385 291 447 392 23 38 51 119 46
133 -2 7 -33 48 -69 92 -75 93 -105 142 -119 187 -6 18 -10 151 -10 296 1 205
4 268 15 290 17 33 29 113 31 207 1 67 66 400 84 434 5 9 12 43 16 76 4 33 15
76 25 95 9 19 20 60 24 91 3 31 13 75 21 98 8 24 20 84 26 134 6 51 17 101 24
112 7 11 15 52 19 90 4 39 15 108 26 155 41 186 69 479 69 745 1 224 -10 299
-53 390 -19 38 -38 81 -41 94 -11 37 -104 125 -170 159 -74 39 -142 42 -278
11 -50 -12 -117 -25 -147 -29 -61 -9 -88 -17 -207 -68 -46 -19 -90 -43 -99
-53 -10 -11 -22 -19 -29 -19 -6 0 -20 -7 -30 -16 -11 -8 -58 -39 -105 -69 -47
-30 -98 -63 -115 -75 -16 -11 -52 -35 -78 -52 -26 -17 -78 -59 -115 -94 -100
-94 -142 -94 -142 2 0 57 -54 217 -93 274 -107 159 -293 254 -432 221z m-32
-3967 c51 -4 77 -10 77 -18 0 -9 -37 -12 -149 -11 -158 2 -180 7 -159 32 10
12 26 14 83 9 38 -4 105 -9 148 -12z"/>
<path d="M10466 7461 c-3 -5 1 -14 9 -21 12 -10 21 -10 41 -1 14 6 22 16 19
21 -8 12 -62 13 -69 1z"/>
<path d="M10042 7419 c-22 -8 -22 -9 -6 -35 15 -22 15 -27 3 -35 -13 -8 -86
-13 -208 -14 -44 0 -56 -4 -68 -22 -21 -31 -46 -29 -87 7 l-35 31 -16 -35
c-16 -32 -21 -36 -55 -34 -28 1 -47 -6 -70 -25 -24 -21 -37 -25 -61 -20 -39 8
-105 -13 -149 -47 -49 -38 -120 -67 -193 -81 -34 -6 -67 -15 -74 -20 -6 -6
-17 -32 -24 -60 -14 -53 -15 -54 -124 -76 -48 -10 -59 -42 -23 -67 34 -24 138
-22 171 4 31 25 114 28 123 5 10 -25 124 -73 192 -80 53 -5 69 -3 98 14 19 12
49 21 65 21 16 0 45 6 64 14 31 13 36 13 60 -6 22 -17 28 -18 42 -6 12 9 46
13 119 11 93 -1 103 1 107 18 11 41 67 31 67 -12 0 -11 6 -20 13 -20 6 -1 -8
-5 -33 -9 -123 -21 -152 -28 -168 -42 -11 -10 -47 -17 -100 -21 -69 -4 -90
-10 -123 -33 -35 -24 -47 -27 -110 -25 -60 2 -75 -1 -93 -18 -18 -17 -41 -23
-105 -28 -63 -5 -84 -10 -91 -23 -7 -13 -26 -19 -74 -22 -41 -2 -71 -10 -83
-20 -10 -9 -41 -22 -68 -28 -80 -17 -81 -19 -31 -44 44 -22 49 -23 78 -9 20
11 44 14 74 9 37 -5 46 -2 56 14 14 22 38 26 56 8 19 -19 97 -15 120 5 31 28
65 18 79 -23 11 -31 12 -32 12 -9 1 14 10 34 20 43 16 15 27 16 70 8 51 -9 52
-9 67 19 17 33 36 36 94 13 22 -9 47 -13 56 -10 8 3 25 -1 38 -9 28 -18 54
-10 66 20 6 17 14 21 37 18 20 -3 34 2 47 16 26 29 57 26 110 -9 l45 -31 -15
-41 c-8 -22 -14 -49 -14 -59 0 -25 -17 -24 -30 2 -9 16 -19 19 -48 17 -42 -3
-56 -31 -26 -52 12 -9 14 -15 5 -20 -6 -4 -14 0 -17 8 -4 12 -20 16 -54 16
-27 0 -51 -4 -54 -9 -4 -5 12 -32 34 -60 l41 -51 -26 -10 c-15 -6 -36 -10 -48
-10 -12 0 -29 -5 -37 -10 -13 -9 -11 -14 13 -31 18 -14 27 -30 27 -49 0 -25
-5 -31 -39 -41 -29 -9 -43 -8 -60 1 -19 10 -26 9 -45 -9 -31 -29 -74 -40 -186
-47 -57 -3 -101 -11 -110 -19 -8 -7 -35 -18 -59 -25 -27 -7 -45 -18 -48 -30
-3 -12 -18 -20 -44 -24 -21 -3 -39 -10 -39 -15 0 -14 35 -23 64 -15 16 4 32 1
41 -6 25 -21 126 -6 148 21 14 18 22 20 40 12 17 -8 28 -7 42 3 10 8 37 14 59
14 23 1 52 7 66 15 14 8 43 15 65 15 22 0 58 5 80 10 28 7 49 6 69 -2 24 -10
31 -9 42 7 7 10 15 23 17 29 3 8 12 7 31 -2 23 -10 31 -10 49 3 30 21 77 19
102 -5 20 -18 23 -19 35 -5 7 8 26 15 42 15 20 0 37 8 50 25 22 28 74 34 108
13 16 -10 25 -9 49 5 21 12 51 17 108 17 75 0 116 11 100 26 -4 4 -118 9 -255
12 l-247 5 -33 -28 c-27 -23 -39 -26 -70 -21 -20 3 -42 12 -48 20 -9 13 -13
13 -26 -1 -11 -10 -25 -13 -42 -9 -20 5 -26 13 -26 35 0 15 9 36 20 46 19 17
26 18 67 7 42 -12 48 -11 69 9 15 14 29 19 43 14 43 -13 225 -7 270 10 41 15
49 15 92 1 54 -18 83 -20 107 -7 23 12 351 -12 380 -28 20 -11 27 -10 42 4 13
12 27 15 53 10 29 -6 37 -3 46 14 13 24 77 39 93 23 7 -7 33 -9 69 -5 40 4 73
1 106 -10 27 -9 58 -14 69 -11 17 4 23 -3 37 -49 9 -29 17 -68 17 -85 0 -18 4
-32 9 -32 12 0 21 37 21 93 0 27 5 57 10 68 16 29 62 24 115 -12 40 -27 50
-30 71 -20 20 9 24 8 24 -5 0 -26 42 -34 66 -13 11 10 27 19 35 19 50 0 83 81
39 95 -11 3 -25 15 -30 26 -6 10 -24 26 -41 35 -28 14 -32 14 -48 0 -10 -9
-31 -16 -47 -17 -16 0 -38 -4 -49 -8 -15 -6 -29 0 -58 25 -30 28 -45 34 -81
34 -25 0 -48 -4 -51 -10 -12 -19 -35 -10 -50 20 -13 26 -21 30 -55 30 -21 0
-42 -4 -45 -10 -9 -15 -53 -12 -80 6 -23 15 -27 15 -51 -1 -17 -11 -35 -14
-54 -10 -25 6 -30 3 -36 -19 -8 -35 2 -46 41 -46 39 0 49 -11 40 -41 -6 -18
-12 -20 -39 -15 -17 3 -42 14 -56 24 -14 10 -40 24 -57 31 -40 16 -41 25 -8
47 14 9 25 20 25 25 0 7 -62 39 -76 39 -2 0 -8 -18 -14 -40 -10 -37 -13 -40
-46 -40 -19 0 -44 5 -55 11 -17 8 -24 6 -40 -15 -17 -22 -29 -26 -72 -26 -48
0 -54 3 -92 44 -22 24 -51 47 -65 51 -14 4 -39 22 -57 41 l-32 34 26 20 c14
11 36 20 49 20 24 0 114 80 114 101 0 15 22 10 44 -10 20 -18 54 -28 186 -52
62 -12 106 -6 131 17 14 12 46 15 175 14 88 0 182 0 210 0 40 1 58 -4 80 -23
37 -31 87 -47 144 -46 74 2 222 -26 260 -48 27 -16 54 -20 123 -21 89 -2 127
-12 127 -36 0 -19 28 -28 50 -16 10 6 35 10 54 10 34 0 36 2 36 35 0 38 -10
44 -31 19 -16 -20 -69 -13 -97 13 -57 52 -72 58 -241 103 -41 11 -93 31 -116
44 -36 21 -46 23 -89 15 -47 -9 -50 -8 -90 28 -22 20 -42 39 -43 42 -2 3 32
14 75 25 92 22 96 24 82 41 -13 15 -4 59 16 75 10 9 19 6 40 -15 l27 -27 -29
-23 c-16 -13 -27 -25 -24 -27 15 -14 99 -48 116 -48 40 0 59 45 29 70 -12 10
-14 25 -9 69 l6 56 -36 17 c-68 33 -4 72 81 49 33 -9 43 -18 58 -51 16 -36 22
-40 55 -40 29 0 43 7 66 34 l30 34 -37 11 c-20 6 -42 18 -49 26 -14 16 -4 23
53 34 60 13 35 41 -37 41 -16 0 -41 -11 -59 -26 -24 -20 -37 -24 -60 -20 -35
7 -57 23 -57 41 0 7 -13 18 -30 25 -22 9 -30 19 -30 37 0 30 -34 44 -73 30
-27 -9 -27 -10 -11 -28 9 -10 26 -22 38 -25 19 -6 17 -8 -14 -20 -54 -19 -98
-17 -110 5 -13 26 -44 35 -107 32 -47 -2 -53 0 -53 17 0 11 7 25 15 32 32 27
-2 43 -36 17 -10 -8 -46 -12 -93 -11 -63 2 -81 6 -99 22 -37 34 -67 41 -115
24 -57 -19 -144 -12 -173 14 -20 18 -41 19 -406 19 -379 0 -384 0 -401 21 -20
26 -59 36 -90 23z m1497 -228 c11 -7 12 -20 5 -63 -8 -49 -11 -53 -39 -56 -25
-2 -27 -1 -12 8 23 15 22 47 -3 60 -27 15 -26 47 3 53 12 2 24 5 27 5 3 1 11
-2 19 -7z m149 -55 c10 -10 4 -19 -29 -45 -43 -35 -55 -33 -61 10 -6 52 48 73
90 35z m-340 -28 c21 -21 14 -34 -49 -98 -51 -52 -67 -63 -93 -62 -17 1 -42 1
-56 1 -28 -1 -67 -1 -125 1 -22 1 -57 -1 -77 -5 -33 -6 -38 -5 -52 23 l-16 31
-512 0 c-350 0 -516 -3 -525 -11 -13 -10 -13 -10 -17 33 -2 26 131 44 303 41
34 -1 48 4 58 18 17 24 70 27 98 6 15 -11 25 -11 40 -4 12 7 124 12 287 14
l267 4 19 -24 c17 -22 22 -23 65 -15 29 5 57 5 73 -1 16 -7 32 -7 44 0 10 5
31 10 47 10 16 0 38 7 50 15 15 11 28 12 45 6 18 -7 29 -4 47 10 26 22 61 25
79 7z m96 -106 c-4 -12 -12 -22 -20 -22 -7 0 -11 7 -9 15 3 8 7 23 10 32 8 25
25 2 19 -25z m-1683 -8 c24 -29 -31 -46 -74 -22 -22 11 -22 12 8 24 40 17 50
17 66 -2z m1644 -109 c0 -22 -24 -30 -61 -21 -49 13 -21 57 29 47 23 -5 32
-12 32 -26z m-721 -81 c23 -9 1 -34 -30 -34 -28 0 -33 26 -6 33 9 3 18 5 19 6
1 0 9 -2 17 -5z m-182 -66 c-15 -15 -26 -4 -18 18 5 13 9 15 18 6 9 -9 9 -15
0 -24z m-132 8 c0 -8 -4 -17 -8 -20 -13 -8 -35 11 -28 23 10 16 36 14 36 -3z
m-232 -120 c9 -19 8 -27 -4 -37 -24 -19 -50 11 -35 40 15 27 25 27 39 -3z
m191 -10 c9 -11 8 -15 -5 -20 -21 -8 -34 1 -27 19 7 19 17 19 32 1z m-185
-140 c11 -18 27 -26 53 -28 30 -2 38 -7 38 -23 0 -17 -9 -21 -73 -28 -61 -8
-78 -6 -110 10 -33 16 -41 17 -80 4 -30 -9 -47 -10 -54 -3 -19 19 2 34 38 27
30 -5 34 -3 40 20 7 28 41 35 50 10 9 -23 33 -18 46 10 14 32 31 32 52 1z
m309 -11 c-3 -15 -45 -23 -66 -13 -10 5 -15 14 -11 19 8 13 80 7 77 -6z m432
-100 c0 -15 -8 -21 -34 -23 -38 -4 -57 9 -47 33 4 12 16 15 43 13 30 -2 38 -7
38 -23z"/>
<path d="M11285 7361 c-3 -5 -1 -12 5 -16 5 -3 10 1 10 9 0 18 -6 21 -15 7z"/>
<path d="M12211 7198 c-16 -42 49 -152 78 -133 18 10 2 95 -23 127 -26 33 -44
35 -55 6z"/>
<path d="M8931 7041 c-19 -12 -4 -51 19 -51 15 0 30 18 30 35 0 11 -38 23 -49
16z"/>
<path d="M12133 6993 c-20 -7 -15 -23 7 -23 11 0 20 4 20 9 0 13 -12 19 -27
14z"/>
<path d="M12504 6984 c-14 -6 -5 -54 12 -61 22 -8 54 16 54 42 0 21 -5 25 -27
24 -16 0 -33 -3 -39 -5z"/>
<path d="M12622 6942 c-10 -7 -9 -14 6 -32 23 -29 55 -21 50 12 -3 24 -33 35
-56 20z"/>
<path d="M12371 6901 c-20 -13 -4 -31 29 -31 16 0 32 5 36 11 7 12 -13 29 -36
29 -8 0 -21 -4 -29 -9z"/>
<path d="M8743 6893 c-18 -6 -16 -60 1 -66 23 -9 46 15 40 40 -6 23 -21 33
-41 26z"/>
<path d="M11882 6852 c-16 -11 12 -38 50 -47 21 -5 27 -3 33 15 5 15 2 26 -6
31 -18 11 -60 11 -77 1z"/>
<path d="M9115 6801 c-7 -12 12 -24 25 -16 11 7 4 25 -10 25 -5 0 -11 -4 -15
-9z"/>
<path d="M12080 6800 c-11 -7 -11 -14 -2 -34 9 -20 19 -26 42 -26 l31 0 -17
30 c-20 34 -35 42 -54 30z"/>
<path d="M8975 6750 c-3 -5 1 -10 10 -10 9 0 13 5 10 10 -3 6 -8 10 -10 10 -2
0 -7 -4 -10 -10z"/>
<path d="M12751 6654 c0 -11 3 -14 6 -6 3 7 2 16 -1 19 -3 4 -6 -2 -5 -13z"/>
<path d="M11240 6649 c0 -5 5 -7 10 -4 6 3 10 8 10 11 0 2 -4 4 -10 4 -5 0
-10 -5 -10 -11z"/>
<path d="M12888 6622 c-4 -12 -2 -24 2 -27 13 -8 18 8 10 29 -6 19 -7 19 -12
-2z"/>
<path d="M12673 6603 c9 -2 23 -2 30 0 6 3 -1 5 -18 5 -16 0 -22 -2 -12 -5z"/>
<path d="M10630 6535 c0 -22 4 -34 10 -30 6 3 10 17 10 30 0 13 -4 27 -10 30
-6 4 -10 -8 -10 -30z"/>
<path d="M12312 6509 c2 -6 8 -10 13 -10 5 0 11 4 13 10 2 6 -4 11 -13 11 -9
0 -15 -5 -13 -11z"/>
<path d="M9544 6477 c-4 -10 -2 -23 3 -28 14 -14 24 13 13 32 -7 11 -10 10
-16 -4z"/>
<path d="M12836 6472 c-3 -6 -1 -14 5 -17 15 -10 25 3 12 16 -7 7 -13 7 -17 1z"/>
<path d="M9080 6427 c-25 -5 -46 -10 -47 -11 -2 -2 -7 -24 -12 -49 -10 -54 1
-70 38 -56 l24 9 -22 24 c-19 20 -21 28 -11 46 10 18 17 21 50 15 39 -7 59 5
37 22 -7 6 -29 6 -57 0z"/>
<path d="M9382 6431 c-13 -3 -23 -10 -23 -16 1 -14 63 -13 68 1 5 15 -16 22
-45 15z"/>
<path d="M12873 6423 c-3 -10 -12 -25 -19 -33 -25 -29 -34 -68 -19 -80 11 -9
18 -7 32 9 22 26 37 26 54 0 10 -14 20 -18 32 -13 25 9 15 45 -25 95 -35 43
-46 47 -55 22z"/>
<path d="M11902 6418 c5 -15 57 -18 61 -3 1 6 -13 11 -32 13 -24 3 -32 0 -29
-10z"/>
<path d="M9532 6373 c-16 -35 -19 -36 -72 -37 -88 -2 -65 -21 25 -21 84 -1
105 -7 105 -31 0 -8 5 -14 10 -14 6 0 10 18 10 40 0 27 5 42 18 49 16 9 16 10
-3 16 -11 3 -32 12 -48 20 -26 14 -28 13 -45 -22z"/>
<path d="M9250 6380 c-13 -9 -13 -11 0 -20 8 -5 17 -10 20 -10 3 0 12 5 20 10
13 9 13 11 0 20 -8 5 -17 10 -20 10 -3 0 -12 -5 -20 -10z"/>
<path d="M13306 6332 c-3 -6 -1 -14 5 -17 15 -10 25 3 12 16 -7 7 -13 7 -17 1z"/>
<path d="M12883 6278 c2 -7 10 -13 17 -13 7 0 15 6 18 13 2 7 -5 12 -18 12
-13 0 -20 -5 -17 -12z"/>
<path d="M11562 6230 c-15 -24 -57 -27 -66 -4 -3 8 -10 12 -16 9 -15 -9 -12
-19 10 -43 17 -18 32 -22 80 -22 60 0 87 13 50 25 -11 3 -26 17 -33 31 -12 23
-13 23 -25 4z"/>
<path d="M11831 6231 c-12 -12 -34 -21 -50 -21 -28 0 -91 -18 -91 -26 0 -3 7
-18 15 -35 14 -25 18 -28 36 -18 12 6 33 9 48 6 20 -4 31 1 49 21 21 26 23 26
35 9 33 -50 33 -50 54 -39 24 13 37 52 20 57 -7 2 -24 6 -39 9 -16 4 -28 12
-28 20 0 7 -6 19 -14 25 -12 10 -19 8 -35 -8z"/>
<path d="M11985 6240 c-11 -18 6 -30 43 -30 51 0 72 14 44 29 -26 14 -79 14
-87 1z"/>
<path d="M12938 6245 c-7 -7 28 -81 42 -90 5 -3 15 -2 24 1 19 7 20 42 3 66
-14 18 -59 33 -69 23z"/>
<path d="M9254 6226 c-11 -28 1 -51 27 -54 22 -3 29 2 37 27 6 16 8 32 5 35
-12 12 -64 6 -69 -8z"/>
<path d="M11020 6200 l-35 -18 28 -11 c37 -14 59 -14 81 2 17 13 17 14 -8 30
-30 20 -23 20 -66 -3z"/>
<path d="M12134 6201 c-14 -14 0 -31 25 -31 16 0 41 -4 55 -10 33 -12 76 3 76
27 0 16 -10 18 -76 18 -41 0 -77 -2 -80 -4z"/>
<path d="M13160 6195 c-11 -13 -11 -19 3 -33 20 -19 41 -5 35 24 -4 24 -22 28
-38 9z"/>
<path d="M10795 6189 c-4 -5 1 -19 10 -29 16 -17 20 -18 38 -5 12 8 38 15 59
15 42 0 51 14 16 24 -37 10 -116 7 -123 -5z"/>
<path d="M13062 6188 c-7 -7 -12 -16 -12 -21 0 -20 -44 -97 -55 -97 -7 0 -20
9 -29 19 -10 11 -24 17 -31 15 -17 -7 -35 -49 -36 -87 -1 -22 -4 -14 -9 23 -7
44 -14 59 -42 82 -18 15 -42 27 -52 25 -18 -2 -20 -9 -17 -59 1 -31 -2 -66 -8
-76 -9 -17 -6 -23 24 -41 19 -11 35 -25 35 -32 0 -6 26 -38 59 -72 66 -71 77
-98 54 -139 -16 -26 -16 -30 4 -70 l22 -42 -33 -32 c-18 -17 -47 -35 -64 -39
-18 -3 -32 -8 -32 -10 0 -7 47 -73 64 -90 16 -16 23 -77 19 -168 -2 -46 -53
-137 -105 -187 -21 -21 -38 -42 -38 -47 0 -16 -71 -102 -89 -108 -9 -3 -26
-21 -39 -41 -14 -21 -40 -42 -66 -54 -43 -18 -135 -82 -148 -103 -3 -6 -4 -25
-1 -43 5 -29 3 -32 -26 -39 -17 -4 -31 -11 -31 -17 0 -5 -7 -2 -16 6 -8 9 -19
16 -24 16 -18 0 -40 -13 -40 -24 0 -6 -12 -24 -26 -40 -20 -23 -31 -27 -54
-23 -24 5 -35 0 -63 -28 -19 -19 -44 -35 -54 -35 -11 0 -28 -9 -38 -20 -10
-11 -35 -23 -55 -26 -47 -8 -54 -12 -74 -51 -18 -36 -27 -39 -54 -22 -21 13
-63 -12 -125 -75 -36 -35 -40 -37 -56 -22 -10 9 -29 16 -44 16 -14 0 -38 5
-53 10 -24 9 -30 7 -53 -19 -20 -23 -37 -30 -74 -34 -44 -4 -51 -2 -83 28 -18
18 -34 37 -34 43 0 18 -18 24 -40 12 -15 -8 -27 -7 -47 3 -40 19 -71 10 -89
-25 -22 -43 -8 -49 95 -46 71 3 85 0 95 -15 16 -26 -1 -33 -128 -47 -61 -7
-118 -16 -126 -20 -8 -4 -24 -4 -35 1 -19 7 -19 8 3 8 12 1 25 1 29 0 4 0 12
19 18 43 17 68 11 71 -135 63 -103 -6 -129 -10 -146 -26 -18 -17 -37 -19 -140
-20 -94 -1 -128 -5 -163 -20 -51 -22 -63 -23 -112 -5 -30 11 -41 10 -62 0 -32
-17 -144 -25 -312 -23 -366 6 -361 6 -389 -20 l-26 -24 -23 21 c-27 26 -40 27
-57 7 -10 -12 -15 -12 -38 4 -19 13 -54 21 -112 26 -46 4 -97 13 -113 21 -21
11 -82 16 -245 20 -298 7 -335 9 -359 23 -12 6 -47 11 -78 11 -43 0 -70 7
-109 27 -44 23 -65 27 -150 30 -85 2 -101 5 -112 22 -11 15 -26 19 -73 20 -36
0 -79 8 -108 20 -26 11 -82 25 -123 32 -41 7 -89 20 -106 30 -21 13 -41 17
-61 13 -18 -4 -59 3 -104 16 -41 12 -93 26 -117 31 -23 4 -52 14 -65 20 -12 7
-33 13 -47 15 -37 3 -132 32 -144 44 -11 11 -104 14 -129 4 -13 -5 -12 -9 4
-25 16 -16 18 -23 8 -35 -15 -18 -48 -18 -55 0 -3 8 -1 23 5 34 8 15 6 24 -13
41 l-23 22 -21 -35 c-23 -39 -28 -41 -66 -26 -20 7 -26 17 -26 38 0 53 -51 71
-91 31 -27 -27 -63 -18 -79 20 -16 40 -38 46 -66 20 -28 -26 -59 -18 -79 21
-17 33 -33 41 -58 28 -34 -17 -47 -2 -47 52 0 27 -3 51 -7 52 -5 0 -46 2 -93
3 -61 2 -89 -1 -101 -11 -16 -14 -49 -10 -49 7 0 12 -79 56 -115 65 -16 3 -54
22 -82 41 -29 19 -77 42 -105 52 -29 9 -73 30 -97 47 -24 16 -60 37 -79 47
-19 10 -41 25 -49 33 -8 8 -22 14 -32 14 -10 0 -26 9 -36 20 -10 11 -31 20
-47 20 -16 0 -46 11 -66 25 -20 14 -43 25 -52 25 -8 0 -35 14 -59 30 -24 17
-53 30 -64 30 -11 0 -28 6 -36 14 -22 19 -113 66 -128 66 -6 0 -22 13 -35 28
-13 15 -48 38 -78 51 -30 13 -78 34 -106 47 -28 13 -56 24 -62 24 -14 0 -111
50 -141 72 -13 10 -31 18 -39 18 -9 0 -30 15 -47 34 -19 21 -48 39 -73 46 -23
6 -59 22 -79 35 -30 21 -48 25 -110 25 -46 0 -85 6 -102 15 -16 8 -48 17 -72
21 -24 3 -57 16 -74 27 -27 19 -49 22 -200 29 -93 3 -240 4 -325 0 -156 -6
-206 -6 -369 -1 -76 2 -93 -1 -124 -20 -29 -18 -52 -22 -135 -24 -82 -2 -104
-6 -121 -21 -16 -15 -41 -20 -104 -24 -55 -3 -95 -11 -122 -25 -22 -11 -68
-22 -105 -25 -42 -3 -72 -11 -85 -22 -11 -10 -46 -23 -77 -30 -31 -6 -62 -18
-68 -26 -7 -7 -27 -14 -44 -14 -18 0 -50 -13 -76 -31 -26 -18 -52 -28 -64 -25
-11 3 -49 -11 -90 -33 -39 -21 -84 -42 -99 -45 -15 -4 -47 -20 -69 -36 -23
-17 -48 -30 -57 -30 -19 0 -112 -47 -164 -83 -21 -14 -46 -29 -56 -32 -10 -3
-24 -17 -31 -30 -10 -19 -22 -25 -45 -25 -18 0 -46 -11 -65 -25 -19 -14 -39
-25 -45 -25 -6 0 -22 -12 -36 -27 -35 -38 -108 -89 -150 -107 -19 -8 -47 -29
-64 -46 -16 -17 -65 -50 -108 -72 -62 -32 -82 -49 -97 -78 -12 -24 -29 -40
-45 -44 -33 -8 -127 -102 -144 -143 -10 -25 -22 -35 -52 -43 -22 -6 -40 -14
-40 -18 -1 -4 -3 -26 -3 -48 -2 -34 -11 -51 -49 -95 -43 -49 -47 -58 -47 -105
0 -31 12 -90 30 -144 25 -76 30 -108 30 -188 l0 -95 65 -68 c67 -69 72 -81 56
-137 -13 -45 12 -63 72 -50 43 9 94 11 107 3 4 -2 18 -21 33 -42 22 -32 25
-45 20 -86 -6 -47 -6 -48 -37 -42 -25 5 -28 4 -13 -5 9 -6 17 -17 17 -25 0
-23 -30 -46 -52 -39 -18 5 -37 -8 -38 -27 0 -14 54 -29 89 -23 27 4 40 2 50
-10 18 -21 1 -43 -43 -55 -25 -7 -27 -9 -8 -10 31 -1 45 -38 26 -68 -8 -13
-12 -23 -9 -24 3 0 26 -1 52 -1 42 -1 49 2 63 27 23 41 38 42 55 1 17 -40 22
-42 48 -21 14 10 25 11 42 3 39 -17 82 13 99 71 8 27 26 68 41 91 26 42 113
132 168 177 21 17 27 30 27 60 0 22 6 46 12 55 13 17 81 69 131 101 15 10 53
40 83 68 30 27 61 49 69 49 7 0 20 9 27 19 8 11 27 25 43 32 17 7 39 20 50 29
35 29 125 80 141 80 8 0 30 11 48 25 18 14 40 25 48 25 17 0 36 20 53 54 6 11
22 23 35 24 13 2 37 15 53 28 16 13 36 24 46 24 9 0 32 11 51 25 19 14 43 25
54 25 10 0 49 16 85 36 86 48 152 65 218 58 51 -7 51 -6 77 33 15 22 39 46 54
53 15 7 44 21 65 32 32 17 57 20 148 19 61 -1 113 -2 117 -2 33 -5 65 6 98 32
33 26 44 29 76 24 29 -5 46 -2 73 15 47 29 75 20 75 -25 0 -38 24 -49 87 -39
22 3 55 -1 78 -9 24 -8 50 -11 65 -6 62 18 170 5 170 -21 0 -6 -14 -19 -31
-29 -28 -17 -29 -20 -11 -25 11 -4 23 -14 27 -24 5 -14 7 -14 15 -2 6 9 24 14
52 12 24 -1 66 5 95 13 58 17 83 12 83 -16 0 -22 87 -66 158 -80 28 -6 62 -24
95 -51 41 -35 60 -44 101 -48 l50 -5 14 -57 c15 -62 32 -74 70 -49 21 13 29
12 73 -3 49 -18 49 -18 68 5 19 24 48 21 56 -6 3 -8 7 -23 10 -32 4 -12 11 -5
27 26 26 53 61 69 100 47 33 -20 84 -21 92 -1 9 23 46 19 46 -5 0 -11 -7 -23
-15 -26 -25 -10 -17 -24 14 -24 20 0 34 -8 46 -26 14 -22 22 -25 50 -21 31 5
34 3 37 -21 2 -19 10 -28 28 -32 14 -3 32 -18 40 -36 14 -27 19 -29 38 -21 19
9 27 6 51 -17 22 -21 34 -26 55 -20 43 10 113 -5 146 -32 25 -22 38 -25 88
-23 48 2 63 -2 82 -18 22 -21 22 -21 41 -2 23 23 67 17 88 -12 10 -14 26 -19
58 -19 57 0 68 -22 27 -55 -22 -18 -26 -26 -18 -35 9 -9 17 -9 32 -1 36 19 51
13 58 -24 8 -42 17 -50 42 -34 28 17 51 4 59 -31 4 -24 10 -29 22 -24 38 16
56 9 67 -26 11 -31 16 -35 42 -32 22 2 35 -4 51 -23 21 -28 70 -44 131 -45 20
0 46 -7 58 -16 13 -9 33 -14 45 -10 15 4 30 -3 48 -20 24 -23 28 -24 43 -9 24
24 20 43 -15 60 -44 23 -23 41 55 47 45 4 73 12 94 28 26 19 34 21 47 10 20
-17 19 -23 -10 -54 -27 -29 -32 -60 -13 -72 6 -4 17 1 24 12 8 10 22 30 31 43
10 13 21 28 24 32 3 5 20 14 38 19 29 8 33 6 43 -16 10 -21 8 -28 -13 -50
l-24 -26 28 -22 c33 -27 36 -56 5 -56 -13 0 -30 -4 -37 -9 -12 -8 -9 -11 13
-17 19 -4 32 -2 42 8 13 13 20 13 52 -3 20 -10 49 -21 64 -25 24 -5 29 -2 40
22 11 29 12 29 16 5 2 -13 -2 -27 -9 -32 -8 -4 -10 -11 -6 -15 4 -4 13 -2 19
4 7 7 27 12 44 12 18 0 45 5 60 10 34 13 47 -2 39 -46 -5 -26 -2 -33 16 -37
12 -3 32 -2 45 3 19 7 27 5 41 -14 28 -36 56 -46 124 -46 51 0 67 -4 87 -22
19 -19 36 -23 93 -25 52 -1 76 -7 94 -21 20 -16 41 -20 107 -20 64 -1 87 -5
108 -20 25 -19 26 -19 49 -1 32 26 66 24 88 -5 10 -14 33 -27 53 -31 29 -5 44
-1 83 25 42 29 47 36 47 70 0 44 -25 77 -79 105 -33 16 -34 18 -16 31 23 17
38 17 88 3 34 -9 38 -13 32 -32 -11 -39 -10 -52 5 -52 11 0 14 10 13 36 -2 34
0 37 36 48 21 6 58 11 82 11 63 0 75 12 41 37 -21 16 -33 18 -46 11 -25 -14
-85 -1 -126 27 -37 26 -77 29 -212 19 -62 -5 -68 -4 -89 20 -19 22 -27 24 -71
19 -40 -5 -54 -2 -77 14 -20 15 -47 22 -101 24 -89 5 -132 26 -105 53 14 13
34 15 133 11 99 -5 122 -9 157 -30 46 -27 76 -25 111 7 22 19 22 19 43 -3 12
-13 21 -25 21 -28 0 -3 68 -5 150 -3 138 3 154 1 184 -17 32 -20 47 -21 460
-21 364 0 431 2 457 15 23 12 34 13 51 4 12 -7 63 -14 114 -16 94 -4 108 1
131 42 6 11 18 11 58 4 54 -11 407 -5 426 6 6 4 9 19 5 35 -7 38 4 41 151 48
94 3 127 2 139 -9 14 -12 14 -14 -2 -26 -10 -7 -38 -13 -63 -13 -25 0 -64 -5
-85 -11 -52 -14 -33 -26 56 -35 78 -8 131 0 154 24 10 9 33 22 53 27 26 8 37
17 39 33 5 35 39 49 132 57 47 4 92 13 100 20 46 41 110 37 110 -8 0 -31 11
-44 40 -48 35 -5 38 24 4 40 l-27 12 23 24 c13 14 31 25 40 25 8 0 24 6 35 14
11 7 55 16 98 20 58 5 83 12 97 26 12 12 34 20 53 20 21 0 41 8 52 20 13 15
31 20 65 20 37 0 51 5 68 25 12 14 33 25 46 25 25 0 95 29 210 86 37 19 76 34
85 34 9 0 24 13 34 29 10 18 29 32 46 36 16 3 37 15 47 26 19 21 44 25 60 9 5
-5 7 -33 4 -62 -5 -53 -5 -53 -47 -63 -24 -6 -50 -20 -58 -31 -8 -12 -28 -24
-45 -27 -65 -14 -23 -37 67 -37 46 0 54 3 73 30 12 17 28 30 37 30 23 0 123
49 123 60 0 6 10 10 23 10 12 0 34 6 48 14 14 7 40 11 57 8 20 -3 43 3 64 16
18 11 44 22 58 25 14 4 43 24 65 45 22 22 50 42 63 46 12 4 22 13 22 21 0 17
-49 69 -75 79 -17 6 -14 12 30 53 47 44 74 82 126 178 34 62 81 114 122 136
35 18 37 22 37 68 0 61 15 75 75 69 44 -5 46 -5 69 35 l25 40 -24 19 c-29 22
-34 22 -57 1 -17 -15 -20 -15 -28 -3 -16 25 -11 40 16 50 23 9 26 15 21 45 -5
29 -2 37 21 53 26 20 26 20 7 48 -20 31 -23 27 55 77 35 23 35 23 43 117 7 93
6 120 -7 150 -4 11 3 21 24 33 34 20 35 24 18 64 -7 15 -13 51 -14 78 -4 85
-15 125 -38 137 -26 14 -36 27 -36 51 0 11 -9 30 -20 44 -11 14 -20 36 -20 50
0 13 -7 40 -16 61 -26 60 -56 174 -57 212 0 46 -28 65 -55 38z m31 -204 c-4
-10 -9 -12 -15 -6 -12 12 -1 35 12 27 5 -3 6 -13 3 -21z m-9975 -916 c7 -7 12
-20 12 -31 0 -15 6 -18 37 -15 29 2 38 -1 41 -14 3 -14 -3 -18 -27 -18 -16 0
-36 7 -45 15 -8 8 -19 15 -24 15 -16 0 -35 29 -28 45 7 18 18 19 34 3z m-474
-253 c-1 -5 -17 -15 -37 -20 -20 -6 -48 -22 -64 -37 -18 -17 -63 -38 -128 -58
-147 -46 -153 -49 -198 -97 -33 -36 -46 -43 -77 -43 -29 0 -41 -6 -54 -25 -21
-32 -86 -37 -86 -6 0 14 11 23 38 32 20 6 39 15 42 19 3 4 36 24 74 44 38 20
76 46 84 57 11 16 21 20 44 15 24 -5 31 -2 35 14 6 22 106 76 162 86 20 4 45
13 56 21 22 15 111 14 109 -2z m10291 -52 c35 -17 36 -19 31 -62 -4 -25 -8
-47 -11 -49 -3 -3 -30 7 -60 23 -60 30 -69 51 -35 85 24 24 30 25 75 3z
m-9155 -45 c0 -29 -13 -88 -19 -88 -3 0 -7 23 -8 50 -1 38 2 50 13 50 8 0 14
-6 14 -12z m225 -31 c23 -18 10 -26 -55 -34 -34 -4 -55 -2 -66 8 -14 12 -14
14 2 26 23 17 95 17 119 0z m121 -49 c6 -10 -20 -38 -36 -38 -3 0 -14 6 -25
13 -24 18 -11 37 25 37 16 0 32 -5 36 -12z m164 -58 c0 -5 -4 -10 -10 -10 -5
0 -10 5 -10 10 0 6 5 10 10 10 6 0 10 -4 10 -10z m8013 -34 c8 -21 -16 -39
-31 -24 -7 7 -12 18 -12 25 0 18 36 17 43 -1z m-7863 -16 c6 -11 17 -20 24
-20 25 0 37 -25 22 -45 -12 -16 -16 -17 -30 -6 -9 7 -16 20 -16 27 0 7 -12 21
-26 30 -19 13 -22 19 -12 25 20 13 26 11 38 -11z m-2448 -35 c0 -5 -14 -17
-33 -27 -19 -9 -66 -48 -106 -87 -40 -39 -78 -71 -84 -71 -16 0 -49 -30 -49
-45 0 -15 -68 -70 -98 -79 -12 -4 -32 -25 -45 -46 -23 -41 -65 -67 -93 -56
-26 10 -7 66 35 103 20 18 41 32 47 33 6 0 35 23 64 50 29 28 58 50 65 50 7 0
20 11 29 25 11 17 26 25 46 25 17 0 30 5 30 11 0 16 68 79 85 79 8 0 19 9 25
19 14 27 80 39 82 16z m10203 -15 c-5 -8 -11 -8 -17 -2 -6 6 -7 16 -3 22 5 8
11 8 17 2 6 -6 7 -16 3 -22z m535 8 c29 -21 30 -21 50 -3 15 14 23 16 32 7 8
-8 7 -13 -5 -18 -9 -3 -17 -12 -17 -18 0 -7 -6 -20 -13 -30 -12 -16 -18 -17
-49 -7 -43 14 -83 54 -75 75 9 22 43 20 77 -6z m-8100 -54 c0 -9 -7 -14 -17
-12 -25 5 -28 28 -4 28 12 0 21 -6 21 -16z m53 -41 c-7 -2 -19 -2 -25 0 -7 3
-2 5 12 5 14 0 19 -2 13 -5z m183 -84 c3 -6 -1 -18 -9 -27 -13 -13 -19 -13
-32 -2 -12 10 -13 16 -4 26 14 17 35 18 45 3z m6168 -75 l26 -32 -29 -11 c-32
-14 -83 -17 -100 -7 -20 13 -13 73 11 90 26 18 52 7 92 -40z m-5989 6 c-5 -8
-11 -8 -17 -2 -6 6 -7 16 -3 22 5 8 11 8 17 2 6 -6 7 -16 3 -22z m7520 20 c16
0 28 -59 15 -75 -6 -7 -21 -16 -34 -19 -13 -3 -48 -22 -77 -41 -30 -19 -61
-35 -70 -35 -10 0 -31 -8 -49 -17 -30 -17 -32 -17 -45 1 -8 11 -15 25 -15 32
0 18 88 64 121 64 16 0 29 5 29 11 0 18 84 90 98 84 8 -3 19 -5 27 -5z m-7142
-46 c9 -9 -4 -34 -18 -34 -17 0 -27 27 -12 34 17 7 23 7 30 0z m5471 0 c22 -8
10 -24 -19 -24 -29 0 -42 17 -18 23 10 3 19 5 20 6 1 0 8 -2 17 -5z m-165 -27
c33 -17 37 -35 9 -45 -13 -5 -73 -12 -135 -16 -96 -5 -114 -4 -128 10 -24 25
-5 37 78 50 100 15 148 16 176 1z m-851 -62 c111 -17 -22 -50 -154 -38 -69 6
-89 11 -89 23 0 24 129 32 243 15z m458 0 c19 -15 19 -15 0 -30 -15 -11 -49
-14 -151 -14 -140 1 -251 19 -206 34 27 8 179 21 277 24 40 1 67 -4 80 -14z
m880 -96 c10 -17 -13 -36 -27 -22 -12 12 -4 33 11 33 5 0 12 -5 16 -11z
m-5319 -54 c8 -22 -2 -28 -34 -20 -27 6 -27 7 -9 21 25 18 35 18 43 -1z m4237
-43 c2 -4 1 -14 -4 -22 -7 -11 -12 -12 -21 -3 -6 6 -8 16 -5 22 8 13 23 14 30
3z m-8990 -48 c8 -20 -12 -56 -27 -51 -14 4 -21 32 -13 53 7 19 32 18 40 -2z
m-105 -63 c-15 -5 -22 6 -14 19 6 9 10 9 16 -1 5 -8 4 -15 -2 -18z m-34 -21
c8 -13 -4 -50 -16 -50 -13 0 -22 27 -15 45 6 17 22 20 31 5z m6071 -14 c3 -8
0 -24 -6 -36 -11 -20 -13 -20 -29 -6 -10 9 -32 16 -49 16 -32 0 -48 13 -37 30
10 16 115 13 121 -4z m189 -47 c6 -6 3 -15 -7 -25 -19 -19 -71 -13 -104 10
-18 14 -18 15 6 25 27 11 89 5 105 -10z m144 -42 c15 -19 -6 -37 -44 -37 -35
0 -56 16 -48 36 7 18 77 18 92 1z m-895 -3 c9 -3 16 -15 16 -25 0 -22 -28 -69
-40 -69 -12 0 -19 40 -13 71 6 30 11 33 37 23z m234 -25 c2 -14 -2 -38 -9 -55
-10 -27 -12 -27 -19 -9 -11 25 -12 79 -3 89 12 12 28 0 31 -25z m898 -5 c4
-14 3 -29 -2 -34 -14 -13 -162 -16 -175 -3 -6 6 -8 20 -5 31 6 18 13 19 70 15
41 -4 66 -2 70 6 13 20 35 12 42 -15z m184 -59 c10 -12 10 -18 0 -29 -13 -16
-98 -12 -134 7 -19 9 -19 10 -1 23 26 19 119 18 135 -1z m64 -248 c8 -12 6
-21 -6 -34 -16 -16 -19 -15 -53 3 -32 17 -47 49 -29 67 9 9 77 -18 88 -36z
m416 13 c13 -8 13 -11 -1 -26 -19 -18 -59 -11 -59 11 0 22 35 31 60 15z m-197
-30 c37 0 97 -18 97 -28 0 -17 -77 -50 -103 -45 -15 3 -27 1 -27 -5 0 -17 -68
-35 -105 -28 -40 8 -58 27 -53 57 2 17 15 25 53 36 28 8 54 19 59 23 5 5 17 5
27 0 10 -6 33 -10 52 -10z"/>
<path d="M13245 6190 c-4 -7 -3 -16 3 -22 14 -14 45 -2 40 15 -6 16 -34 21
-43 7z"/>
<path d="M11241 6174 c0 -11 3 -14 6 -6 3 7 2 16 -1 19 -3 4 -6 -2 -5 -13z"/>
<path d="M13405 6180 c3 -5 8 -10 11 -10 2 0 4 5 4 10 0 6 -5 10 -11 10 -5 0
-7 -4 -4 -10z"/>
<path d="M12068 6148 c-33 -12 -35 -23 -7 -38 27 -15 49 -6 49 19 0 26 -9 30
-42 19z"/>
<path d="M9083 6133 c9 -2 23 -2 30 0 6 3 -1 5 -18 5 -16 0 -22 -2 -12 -5z"/>
<path d="M13212 6131 c-16 -10 -12 -73 5 -78 6 -2 17 5 23 16 14 27 -8 75 -28
62z"/>
<path d="M11993 6104 c-7 -18 11 -39 26 -30 17 11 13 46 -4 46 -9 0 -18 -7
-22 -16z"/>
<path d="M13430 6100 c-13 -8 -13 -11 2 -26 20 -20 51 -11 46 13 -4 21 -27 27
-48 13z"/>
<path d="M12051 6056 c-15 -18 -12 -20 54 -34 48 -10 75 -5 75 13 0 19 -8 23
-66 30 -39 6 -53 4 -63 -9z"/>
<path d="M12645 6049 c-9 -13 3 -59 14 -59 11 0 24 48 16 60 -8 13 -22 13 -30
-1z"/>
<path d="M8945 6018 c-87 -18 -85 -17 -85 -48 0 -38 27 -54 61 -35 13 8 39 21
57 30 58 28 34 67 -33 53z"/>
<path d="M13495 5990 c4 -6 11 -8 16 -5 14 9 11 15 -7 15 -8 0 -12 -5 -9 -10z"/>
<path d="M12277 5983 c-4 -3 -7 -17 -7 -30 0 -23 3 -24 43 -18 47 7 97 -7 97
-29 0 -17 41 -29 75 -20 28 7 24 24 -6 24 -10 0 -28 9 -38 19 -34 34 -57 42
-86 29 -22 -10 -28 -8 -48 10 -13 12 -27 19 -30 15z"/>
<path d="M9020 5952 c0 -14 11 -21 26 -15 8 3 11 9 8 14 -7 11 -34 12 -34 1z"/>
<path d="M13547 5813 c-2 -5 -1 -19 3 -33 l6 -25 6 28 c5 26 -5 47 -15 30z"/>
<path d="M12872 5629 c-28 -11 -20 -29 14 -29 14 0 24 6 24 14 0 21 -11 25
-38 15z"/>
<path d="M13551 5384 c0 -11 3 -14 6 -6 3 7 2 16 -1 19 -3 4 -6 -2 -5 -13z"/>
<path d="M13452 5283 c4 -22 47 -30 59 -12 12 20 1 29 -32 29 -24 0 -30 -4
-27 -17z"/>
<path d="M13354 5226 c-11 -45 -2 -61 36 -61 46 0 48 22 5 58 l-34 28 -7 -25z"/>
<path d="M13307 5104 c-4 -4 -7 -20 -7 -35 0 -19 -8 -34 -25 -45 -45 -30 -24
-110 23 -85 35 19 50 53 47 111 -3 52 -18 73 -38 54z"/>
<path d="M13116 4593 c-10 -24 14 -43 42 -32 29 11 28 23 -3 37 -33 15 -32 15
-39 -5z"/>
<path d="M3890 4522 c-8 -2 -31 -11 -50 -19 -31 -13 -33 -15 -17 -24 10 -6 43
-11 73 -11 55 -1 82 11 70 30 -9 14 -58 30 -76 24z"/>
<path d="M3683 4483 c9 -2 23 -2 30 0 6 3 -1 5 -18 5 -16 0 -22 -2 -12 -5z"/>
<path d="M12970 4440 c0 -5 9 -10 20 -10 11 0 20 5 20 10 0 6 -9 10 -20 10
-11 0 -20 -4 -20 -10z"/>
<path d="M13110 4411 c-11 -9 -30 -36 -43 -61 -17 -33 -31 -47 -53 -51 -16 -4
-23 -7 -16 -8 6 0 12 -10 12 -20 0 -11 5 -32 11 -48 l11 -28 19 43 c10 23 25
42 33 42 10 0 16 13 18 43 2 35 7 43 25 45 17 3 24 -3 28 -25 11 -45 14 -53
24 -53 11 0 25 77 19 106 -5 26 -63 37 -88 15z"/>
<path d="M11475 4390 c3 -5 13 -10 21 -10 8 0 14 5 14 10 0 6 -9 10 -21 10
-11 0 -17 -4 -14 -10z"/>
<path d="M12927 4166 c-16 -12 -13 -14 29 -21 47 -7 72 3 60 24 -10 15 -67 13
-89 -3z"/>
<path d="M5215 4060 c3 -5 8 -10 11 -10 2 0 4 5 4 10 0 6 -5 10 -11 10 -5 0
-7 -4 -4 -10z"/>
<path d="M12751 4037 c-13 -6 -24 -16 -24 -22 0 -17 29 -28 57 -21 21 5 27 12
24 29 -4 26 -24 32 -57 14z"/>
<path d="M12643 3961 c-8 -13 -26 -21 -49 -23 -24 -2 -41 -10 -48 -23 -15 -27
-27 -35 -52 -35 -24 0 -80 -26 -90 -41 -6 -11 13 -39 27 -39 5 0 23 14 41 30
17 17 43 33 57 37 14 3 37 14 50 25 13 10 37 18 53 18 28 0 34 6 40 44 4 26
-15 30 -29 7z"/>
<path d="M5490 3940 c0 -6 -12 -21 -27 -34 -35 -30 -23 -46 37 -46 46 0 80
-17 80 -41 0 -12 41 -11 60 1 17 11 14 14 -77 75 -29 20 -53 40 -53 46 0 5 -4
9 -10 9 -5 0 -10 -5 -10 -10z"/>
<path d="M5310 3914 c0 -8 5 -12 10 -9 6 3 10 10 10 16 0 5 -4 9 -10 9 -5 0
-10 -7 -10 -16z"/>
<path d="M11955 3885 c-16 -8 -23 -14 -14 -15 9 0 24 -9 34 -20 23 -25 36 -25
69 1 21 17 24 24 15 35 -14 17 -64 17 -104 -1z"/>
<path d="M11818 3843 c-37 -9 -11 -33 36 -33 29 0 39 10 25 27 -11 13 -28 15
-61 6z"/>
<path d="M5870 3830 c0 -5 5 -10 10 -10 6 0 10 5 10 10 0 6 -4 10 -10 10 -5 0
-10 -4 -10 -10z"/>
<path d="M6016 3807 c-5 -15 -6 -31 -2 -34 11 -11 18 5 14 34 l-4 28 -8 -28z"/>
<path d="M11603 3767 c-8 -26 -7 -40 3 -60 8 -14 13 -36 11 -48 -1 -17 5 -24
23 -29 52 -14 69 12 19 29 -28 10 -30 13 -23 48 4 21 11 46 15 55 7 13 4 20
-10 28 -27 14 -26 14 -38 -23z"/>
<path d="M12032 3776 c-12 -27 -18 -29 -64 -26 -18 1 -38 -8 -59 -28 -28 -26
-30 -33 -22 -58 8 -24 16 -30 46 -32 27 -2 37 1 37 11 0 23 33 47 50 37 17
-11 73 -13 83 -4 3 4 -3 18 -13 32 -11 13 -20 32 -20 41 0 10 -6 25 -13 35
-12 17 -14 16 -25 -8z"/>
<path d="M12135 3789 c-13 -21 5 -57 31 -63 41 -11 46 6 13 42 -33 36 -35 36
-44 21z"/>
<path d="M5720 3781 c0 -6 5 -11 12 -11 7 0 22 -12 34 -27 21 -26 23 -27 30
-9 4 10 3 26 -3 35 -11 18 -73 28 -73 12z"/>
<path d="M6105 3739 c-10 -15 1 -23 20 -15 9 3 13 10 10 16 -8 13 -22 13 -30
-1z"/>
<path d="M11751 3696 c-10 -12 -8 -17 9 -26 31 -17 65 -9 65 15 0 25 -55 34
-74 11z"/>
<path d="M5920 3680 c0 -5 5 -10 10 -10 6 0 10 5 10 10 0 6 -4 10 -10 10 -5 0
-10 -4 -10 -10z"/>
<path d="M12328 3683 c12 -2 30 -2 40 0 9 3 -1 5 -23 4 -22 0 -30 -2 -17 -4z"/>
<path d="M6000 3665 c-13 -16 -7 -60 12 -82 6 -7 24 -13 40 -13 34 0 115 -39
141 -68 15 -16 24 -19 42 -12 18 7 28 4 45 -15 22 -23 24 -24 50 -8 27 15 28
15 70 -26 49 -47 80 -54 80 -17 0 19 -13 34 -56 62 -31 20 -58 43 -61 50 -5
15 -56 34 -89 34 -13 0 -28 9 -35 21 -8 17 -18 20 -46 17 -29 -4 -37 0 -46 20
-21 46 -119 71 -147 37z"/>
<path d="M11428 3608 c-30 -10 -31 -12 -19 -43 5 -11 4 -30 0 -43 -8 -21 12
-82 26 -82 12 0 35 63 30 81 -5 14 0 28 15 44 40 43 11 67 -52 43z"/>
<path d="M11275 3540 c-10 -11 -24 -20 -31 -20 -7 0 -19 -9 -27 -21 -12 -16
-21 -19 -49 -14 -27 5 -38 2 -53 -15 -28 -31 -5 -42 73 -35 49 5 68 3 87 -9
23 -15 25 -15 35 4 6 11 8 25 4 31 -3 6 -6 28 -6 50 1 47 -9 55 -33 29z"/>
<path d="M11635 3551 c-7 -12 31 -25 45 -16 6 4 8 11 5 16 -8 12 -42 12 -50 0z"/>
<path d="M1870 3539 c0 -5 5 -7 10 -4 6 3 10 8 10 11 0 2 -4 4 -10 4 -5 0 -10
-5 -10 -11z"/>
<path d="M1797 3484 c-38 -35 -44 -58 -28 -114 8 -28 34 -29 64 -3 13 12 17
32 17 79 0 35 -3 65 -8 68 -4 2 -24 -11 -45 -30z"/>
<path d="M6901 3486 c-15 -38 3 -60 42 -50 31 7 35 20 8 29 -10 3 -23 15 -28
28 -11 22 -11 22 -22 -7z"/>
<path d="M11940 3500 c0 -5 7 -10 16 -10 8 0 12 5 9 10 -3 6 -10 10 -16 10 -5
0 -9 -4 -9 -10z"/>
<path d="M11033 3493 c9 -2 25 -2 35 0 9 3 1 5 -18 5 -19 0 -27 -2 -17 -5z"/>
<path d="M10860 3464 c-6 -14 -10 -30 -10 -35 0 -5 -6 -9 -12 -10 -7 0 -26 -1
-43 -2 -54 -3 -37 -22 21 -22 57 -1 74 -11 74 -49 0 -16 -5 -18 -34 -13 -55 9
-73 -38 -25 -63 28 -15 37 -12 55 19 10 17 28 32 40 35 13 4 26 18 31 33 8 24
18 30 64 39 l54 12 -55 1 c-49 1 -57 4 -71 30 -9 15 -31 33 -48 39 -29 10 -33
9 -41 -14z"/>
<path d="M10530 3435 c0 -25 14 -33 25 -15 9 15 51 12 64 -4 16 -19 66 -30 86
-18 14 7 12 12 -15 35 -27 23 -41 27 -96 27 -62 0 -64 -1 -64 -25z"/>
<path d="M11762 3440 c0 -14 2 -19 5 -12 2 6 2 18 0 25 -3 6 -5 1 -5 -13z"/>
<path d="M8828 3419 c-11 -6 -18 -22 -18 -38 0 -22 8 -32 35 -47 37 -20 43
-32 23 -52 -10 -10 -8 -19 5 -42 11 -18 15 -38 11 -55 -3 -14 -2 -25 4 -25 5
0 19 -16 31 -35 24 -41 49 -45 92 -14 77 55 50 119 -50 119 -42 0 -60 22 -40
46 16 19 102 18 140 -2 28 -14 33 -14 73 9 38 21 45 22 62 10 25 -18 73 -7
101 24 22 23 27 24 175 24 84 1 180 1 213 0 89 -2 105 4 105 40 0 27 -3 30
-22 23 -13 -3 -36 -13 -53 -22 -16 -8 -47 -14 -70 -12 -22 1 -145 3 -273 2
-199 0 -236 -2 -258 -16 -34 -23 -119 -33 -139 -16 -8 7 -15 25 -15 41 0 22
-5 30 -22 33 -63 13 -95 14 -110 5z"/>
<path d="M6573 3413 c-9 -3 -9 -10 -1 -29 14 -31 28 -31 28 0 0 27 -8 36 -27
29z"/>
<path d="M10377 3412 c-14 -3 -16 -7 -6 -18 15 -18 35 -18 42 0 6 16 -9 24
-36 18z"/>
<path d="M11616 3411 c-4 -5 -2 -12 3 -15 5 -4 12 -2 15 3 4 5 2 12 -3 15 -5
4 -12 2 -15 -3z"/>
<path d="M10153 3393 c-10 -27 -24 -33 -65 -26 -24 3 -38 2 -38 -5 0 -15 13
-17 75 -14 50 4 55 6 55 27 0 30 -18 42 -27 18z"/>
<path d="M11460 3379 c-9 -16 -8 -26 6 -46 16 -25 17 -26 30 -8 17 23 17 30 4
56 -14 25 -27 24 -40 -2z"/>
<path d="M9882 3378 c-19 -19 -15 -26 19 -33 38 -9 58 7 39 30 -15 18 -41 20
-58 3z"/>
<path d="M10530 3370 c0 -16 7 -20 33 -20 l32 0 -25 20 c-32 25 -40 25 -40 0z"/>
<path d="M964 3365 c-8 -20 4 -103 16 -110 12 -7 23 12 37 65 8 34 8 47 0 52
-20 13 -47 9 -53 -7z"/>
<path d="M10671 3317 c-6 -6 -11 -21 -11 -34 0 -31 30 -30 59 1 l22 24 -29 10
c-21 7 -33 7 -41 -1z"/>
<path d="M11230 3320 c-13 -9 -13 -11 0 -20 9 -6 18 -6 24 0 15 15 -6 31 -24
20z"/>
<path d="M6770 3310 c0 -5 7 -10 15 -10 8 0 15 5 15 10 0 6 -7 10 -15 10 -8 0
-15 -4 -15 -10z"/>
<path d="M10440 3279 c-204 -10 -203 -10 -150 -20 25 -4 84 -8 132 -8 78 -1
90 -3 114 -26 39 -36 70 -33 78 6 6 33 -7 60 -28 57 -6 -1 -72 -5 -146 -9z"/>
<path d="M9305 3271 c-9 -16 18 -23 46 -12 16 6 18 10 7 10 -9 1 -23 4 -31 7
-8 3 -18 1 -22 -5z"/>
<path d="M9810 3270 c-16 -10 -12 -12 43 -25 34 -7 67 13 45 26 -17 12 -70 11
-88 -1z"/>
<path d="M10042 3273 c-20 -8 -3 -23 28 -23 33 0 48 15 24 24 -18 7 -33 7 -52
-1z"/>
<path d="M11280 3265 c0 -8 6 -15 14 -15 22 0 28 17 10 24 -22 9 -24 8 -24 -9z"/>
<path d="M1105 3186 c-16 -12 -16 -14 -1 -44 22 -43 36 -40 36 7 0 46 -10 56
-35 37z"/>
<path d="M8645 3171 c-7 -12 12 -24 25 -16 11 7 4 25 -10 25 -5 0 -11 -4 -15
-9z"/>
<path d="M8735 3120 c3 -5 10 -10 16 -10 5 0 9 5 9 10 0 6 -7 10 -16 10 -8 0
-12 -4 -9 -10z"/>
<path d="M11805 3120 c3 -5 8 -10 11 -10 2 0 4 5 4 10 0 6 -5 10 -11 10 -5 0
-7 -4 -4 -10z"/>
<path d="M10160 3093 c0 -13 5 -23 10 -23 13 0 13 11 0 30 -8 12 -10 11 -10
-7z"/>
<path d="M7652 3088 c-18 -18 -15 -32 12 -57 21 -20 32 -22 111 -19 60 2 90 7
93 16 2 8 -11 12 -49 12 -42 0 -58 5 -78 24 -32 30 -72 41 -89 24z"/>
<path d="M7517 3084 c-13 -13 5 -24 38 -24 37 0 54 14 29 24 -21 8 -59 8 -67
0z"/>
<path d="M9161 3081 c-10 -6 -9 -10 3 -14 8 -3 18 -2 21 3 8 13 -9 20 -24 11z"/>
</g>
</svg>
