<?xml version="1.0" standalone="no"?>
<!DOCTYPE svg PUBLIC "-//W3C//DTD SVG 20010904//EN"
 "http://www.w3.org/TR/2001/REC-SVG-20010904/DTD/svg10.dtd">
<svg version="1.0" xmlns="http://www.w3.org/2000/svg"
 width="1375.000000pt" height="1375.000000pt" viewBox="0 0 1375.000000 1375.000000"
 preserveAspectRatio="xMidYMid meet">

<g transform="translate(0.000000,1375.000000) scale(0.100000,-0.100000)"
fill="#000000" stroke="none">
<path d="M6464 10482 c-16 -10 -109 -123 -122 -149 -17 -32 -15 -37 21 -57 97
-54 107 -141 52 -446 -7 -41 -21 -115 -30 -165 -8 -49 -25 -142 -37 -205 -12
-63 -23 -145 -25 -182 -4 -66 -4 -68 19 -69 l23 0 -23 -10 c-18 -7 -22 -14
-17 -31 9 -31 53 -67 93 -74 28 -6 39 0 90 42 59 51 91 84 92 96 0 4 -14 28
-31 53 -54 80 -51 141 27 520 8 39 21 104 29 145 26 140 52 196 119 258 108
99 190 82 222 -48 22 -88 11 -186 -51 -455 -56 -246 -67 -316 -69 -440 -1
-125 8 -150 65 -178 31 -14 35 -14 62 1 47 28 127 102 142 133 15 28 14 31
-20 80 -32 48 -35 57 -35 127 0 42 5 101 10 131 14 76 48 242 66 321 56 248
66 459 25 538 -33 64 -72 79 -162 64 -38 -7 -89 -22 -112 -33 -51 -27 -183
-115 -192 -129 -12 -19 -35 -10 -35 13 -1 38 -36 103 -72 131 -35 26 -98 35
-124 18z m-12 -1294 c-8 -8 -17 -8 -34 0 -22 10 -21 11 12 11 26 1 31 -2 22
-11z"/>
<path d="M7550 9736 c0 -16 -98 -28 -116 -14 -7 5 -14 2 -18 -7 -3 -9 -10 -14
-15 -10 -5 3 -12 1 -16 -5 -3 -5 -15 -10 -26 -10 -10 0 -36 -9 -56 -20 -21
-11 -45 -20 -54 -20 -9 0 -22 -7 -29 -15 -7 -8 -16 -12 -21 -9 -5 3 -9 1 -9
-5 0 -5 6 -12 13 -14 6 -3 0 -6 -15 -6 -19 -1 -28 -6 -28 -17 0 -14 8 -16 46
-10 32 4 54 1 76 -10 22 -11 42 -14 67 -9 20 4 59 8 86 11 28 2 60 6 73 9 12
3 22 2 22 -3 0 -10 -68 -32 -99 -32 -12 0 -29 -4 -39 -9 -9 -5 -51 -16 -92
-26 -98 -22 -135 -36 -120 -45 7 -4 26 -4 44 -1 17 4 50 7 74 6 23 0 42 3 42
8 0 4 8 7 18 6 9 -1 22 0 27 1 6 2 28 4 50 6 22 1 54 4 70 6 25 3 31 -1 34
-22 3 -26 22 -45 31 -31 3 4 16 2 30 -5 21 -11 22 -14 7 -20 -26 -10 -65 4
-72 26 -3 11 -13 20 -21 20 -19 0 -18 -17 4 -29 9 -6 12 -11 5 -11 -6 0 -15 5
-18 10 -3 6 -16 10 -27 10 -20 0 -20 -1 -4 -19 16 -17 16 -19 -6 -25 -18 -5
-20 -8 -9 -15 17 -11 5 -33 -17 -30 -10 1 -24 0 -32 -3 -8 -3 -37 -11 -64 -17
-27 -6 -57 -17 -67 -25 -17 -12 -16 -13 16 -14 19 -1 47 3 62 9 27 10 80 19
268 44 17 2 44 4 60 5 l30 1 -25 10 c-22 9 -65 8 -178 -4 -25 -3 -32 0 -30 11
2 9 16 17 33 18 23 2 218 4 310 3 6 0 35 3 66 7 67 8 96 -5 102 -43 4 -27 4
-26 6 4 1 40 12 47 47 28 36 -18 45 -19 69 -1 18 13 18 15 2 31 -12 12 -26 15
-46 10 -17 -3 -32 -2 -36 4 -3 6 -19 11 -36 11 -16 0 -29 4 -29 9 0 11 -91 4
-104 -9 -7 -7 -4 -10 7 -10 9 0 17 -4 17 -10 0 -13 -3 -13 -34 2 -19 8 -23 14
-16 23 8 9 6 14 -5 19 -9 3 -15 0 -15 -8 0 -8 -17 -16 -40 -20 -34 -5 -46 -2
-75 20 -33 25 -38 44 -13 44 6 0 19 7 28 15 13 12 23 13 43 6 15 -6 68 -8 126
-4 65 4 105 2 113 -5 7 -5 39 -13 71 -17 31 -4 60 -11 63 -16 2 -5 18 -6 33
-3 16 4 32 1 35 -5 8 -13 56 -15 56 -3 0 5 -6 9 -12 9 -12 1 -91 31 -145 56
-12 5 -28 7 -37 4 -8 -3 -20 0 -26 8 -9 11 -7 15 14 21 17 4 26 13 26 25 0 10
5 19 11 19 6 0 9 -9 6 -19 -4 -18 9 -31 33 -31 11 0 10 59 -2 66 -13 8 -9 24
7 24 8 0 23 -10 34 -22 17 -18 23 -19 36 -8 15 12 15 14 -1 23 -17 10 -17 11
1 19 13 5 7 6 -18 3 -34 -5 -42 -2 -63 22 -13 15 -25 25 -25 21 -1 -5 -2 -13
-3 -20 -1 -15 -23 -22 -31 -9 -3 6 -18 11 -32 11 -17 0 -23 4 -20 13 4 10 -3
12 -24 9 -16 -2 -37 -1 -46 3 -25 11 -78 15 -225 18 -69 1 -130 5 -134 10 -12
12 -34 8 -34 -7z m497 -82 c-9 -9 -28 6 -21 18 4 6 10 6 17 -1 6 -6 8 -13 4
-17z m43 -9 c-12 -15 -30 -12 -30 6 0 5 10 9 21 9 18 0 19 -2 9 -15z m-250 -9
c19 -4 57 -3 85 3 61 11 71 7 42 -22 -17 -17 -34 -22 -75 -22 -29 -1 -56 3
-58 7 -3 4 -84 8 -180 8 -114 0 -173 3 -169 10 3 6 27 10 53 11 26 0 67 4 92
7 57 9 165 8 210 -2z m-377 -33 c-7 -2 -19 -2 -25 0 -7 3 -2 5 12 5 14 0 19
-2 13 -5z m534 -29 c-3 -3 -12 -4 -19 -1 -8 3 -5 6 6 6 11 1 17 -2 13 -5z
m-310 -140 c-3 -3 -12 -4 -19 -1 -8 3 -5 6 6 6 11 1 17 -2 13 -5z m140 -30
c-3 -3 -12 -4 -19 -1 -8 3 -5 6 6 6 11 1 17 -2 13 -5z"/>
<path d="M8260 9673 c0 -5 7 -18 15 -29 15 -18 15 -18 13 5 -3 23 -28 44 -28
24z"/>
<path d="M8360 9600 c0 -5 5 -10 10 -10 6 0 10 5 10 10 0 6 -4 10 -10 10 -5 0
-10 -4 -10 -10z"/>
<path d="M8400 9590 c0 -5 5 -10 11 -10 5 0 7 5 4 10 -3 6 -8 10 -11 10 -2 0
-4 -4 -4 -10z"/>
<path d="M7125 9571 c-3 -5 -1 -12 5 -16 5 -3 10 1 10 9 0 18 -6 21 -15 7z"/>
<path d="M8318 9573 c7 -3 16 -2 19 1 4 3 -2 6 -13 5 -11 0 -14 -3 -6 -6z"/>
<path d="M8160 9560 c0 -6 7 -10 15 -10 8 0 15 2 15 4 0 2 -7 6 -15 10 -8 3
-15 1 -15 -4z"/>
<path d="M8220 9540 c0 -5 5 -10 11 -10 5 0 7 5 4 10 -3 6 -8 10 -11 10 -2 0
-4 -4 -4 -10z"/>
<path d="M8475 9412 c0 -29 40 -81 52 -68 4 4 0 12 -9 17 -9 5 -14 17 -11 27
2 10 -4 25 -14 34 -18 16 -19 16 -18 -10z m20 -22 c3 -5 1 -10 -4 -10 -6 0
-11 5 -11 10 0 6 2 10 4 10 3 0 8 -4 11 -10z"/>
<path d="M7335 9420 c3 -5 8 -10 11 -10 2 0 4 5 4 10 0 6 -5 10 -11 10 -5 0
-7 -4 -4 -10z"/>
<path d="M7222 9400 c0 -14 2 -19 5 -12 2 6 2 18 0 25 -3 6 -5 1 -5 -13z"/>
<path d="M7386 9405 c-7 -18 16 -25 31 -10 9 10 8 14 -7 18 -10 3 -21 -1 -24
-8z"/>
<path d="M7350 9389 c0 -5 5 -7 10 -4 6 3 10 8 10 11 0 2 -4 4 -10 4 -5 0 -10
-5 -10 -11z"/>
<path d="M8190 9360 c0 -5 7 -10 16 -10 8 0 12 5 9 10 -3 6 -10 10 -16 10 -5
0 -9 -4 -9 -10z"/>
<path d="M7300 9350 c0 -5 5 -10 10 -10 6 0 10 5 10 10 0 6 -4 10 -10 10 -5 0
-10 -4 -10 -10z"/>
<path d="M7870 9350 c-12 -8 -10 -10 8 -10 13 0 20 4 17 10 -7 12 -6 12 -25 0z"/>
<path d="M8026 9349 c3 -5 17 -9 31 -9 32 0 24 11 -11 14 -14 2 -23 -1 -20 -5z"/>
<path d="M8115 9351 c-21 -4 -26 -9 -17 -15 7 -4 24 -5 38 -2 15 4 24 2 24 -6
0 -9 3 -9 12 0 10 10 10 15 -2 22 -8 5 -17 9 -20 9 -3 -1 -18 -4 -35 -8z"/>
<path d="M7813 9343 c9 -2 23 -2 30 0 6 3 -1 5 -18 5 -16 0 -22 -2 -12 -5z"/>
<path d="M8240 9346 c0 -9 40 -13 46 -5 3 5 -6 9 -20 9 -14 0 -26 -2 -26 -4z"/>
<path d="M8535 9331 c-6 -19 -50 -26 -61 -10 -10 17 -24 9 -24 -13 0 -11 12
-37 27 -57 33 -43 39 -101 11 -109 -21 -5 -23 -15 -5 -30 7 -6 14 -26 15 -44
2 -26 -8 -46 -44 -91 -25 -32 -60 -67 -79 -78 -18 -11 -35 -29 -38 -41 -4 -13
-11 -19 -21 -15 -21 8 -39 -16 -24 -31 9 -9 9 -12 1 -12 -6 0 -13 6 -16 13 -3
9 -10 9 -28 -2 -13 -8 -36 -21 -51 -29 -16 -7 -28 -17 -28 -22 0 -5 -6 -7 -13
-4 -7 2 -21 -4 -31 -15 -15 -16 -23 -18 -44 -10 -18 7 -28 7 -30 0 -5 -15 -47
-14 -60 2 -16 19 -62 20 -62 2 0 -10 10 -15 31 -15 43 0 27 -17 -20 -22 -34
-3 -38 -1 -30 14 11 21 -2 31 -33 23 -28 -7 -143 -22 -213 -29 -95 -9 -290 -7
-330 3 -22 6 -74 11 -115 11 -41 1 -95 5 -120 11 -25 6 -67 14 -95 19 -27 4
-77 16 -110 25 -33 9 -69 18 -80 19 -11 2 -49 11 -85 21 -95 26 -140 33 -140
24 0 -15 -28 -10 -34 6 -4 11 -13 14 -31 9 -16 -4 -25 -2 -25 6 0 7 -6 10 -14
7 -22 -9 -66 16 -66 37 0 15 -6 17 -37 14 -34 -4 -108 27 -238 99 -11 7 -51
26 -90 44 -38 18 -72 36 -75 40 -3 3 -30 17 -60 30 -30 13 -75 36 -99 51 -25
15 -57 28 -72 28 -14 0 -44 7 -65 16 -30 13 -71 16 -184 15 -138 -1 -184 -5
-310 -31 -97 -19 -286 -96 -355 -144 -16 -12 -32 -21 -35 -21 -3 0 -43 -25
-90 -57 -94 -62 -190 -147 -190 -168 0 -7 -8 -22 -17 -32 -15 -16 -15 -25 -5
-64 7 -24 12 -57 12 -73 0 -16 7 -34 15 -41 8 -7 19 -27 23 -44 7 -25 13 -30
31 -28 47 7 69 -44 31 -71 -22 -16 -17 -27 14 -27 15 0 17 -3 9 -11 -6 -6 -9
-18 -6 -25 6 -17 33 -18 33 -1 1 8 4 7 13 -3 19 -24 56 -12 71 23 7 18 28 45
45 61 17 17 31 37 32 45 0 18 94 89 167 128 26 14 54 31 62 38 29 26 139 75
169 75 17 0 31 4 31 10 0 17 43 33 83 32 21 -1 61 5 89 15 42 13 51 14 59 2 4
-8 16 -14 26 -15 10 -1 37 -2 60 -3 35 -1 41 -4 36 -18 -6 -14 0 -15 40 -10
26 4 47 3 47 -2 0 -5 18 -16 39 -24 22 -9 42 -21 46 -27 3 -5 15 -10 25 -10
10 0 21 -8 24 -18 5 -14 15 -18 46 -16 25 1 40 -3 40 -10 0 -6 5 -4 10 4 5 8
25 15 45 16 19 1 33 -1 30 -4 -8 -8 97 -72 118 -72 10 0 27 -5 37 -10 11 -6
36 -12 57 -14 46 -5 83 -16 83 -25 0 -4 -6 -13 -12 -20 -11 -11 -9 -11 10 -2
18 10 22 9 22 -5 0 -10 5 -14 15 -10 9 3 15 0 15 -9 0 -9 6 -12 15 -9 8 4 15
1 15 -5 0 -6 5 -11 10 -11 6 0 10 7 10 16 0 8 4 13 9 10 5 -3 7 -15 4 -25 -4
-16 2 -21 29 -26 18 -3 36 -5 39 -3 3 2 14 -4 24 -12 17 -14 18 -13 13 8 -5
17 -2 22 12 22 10 0 25 3 33 6 12 4 14 0 10 -18 l-5 -23 16 23 c21 27 40 29
33 2 -3 -10 0 -21 7 -24 7 -3 6 -8 -4 -15 -11 -8 -4 -10 28 -8 23 2 42 -1 42
-6 0 -5 9 -5 20 -2 14 5 20 2 20 -9 0 -9 8 -16 19 -16 11 0 22 -4 25 -9 5 -8
83 -26 100 -22 4 1 14 -3 20 -9 7 -5 35 -10 62 -11 27 -1 54 -6 60 -11 18 -13
42 1 58 34 10 19 11 26 3 20 -8 -7 -18 -6 -31 4 -18 13 -15 14 31 14 98 0 61
29 -42 33 -22 1 -45 5 -51 9 -5 4 -34 10 -62 14 -69 9 -77 24 -13 24 27 0 53
-5 56 -10 4 -7 13 -7 24 0 12 6 22 5 29 -2 14 -14 502 -24 502 -11 0 5 33 8
73 7 78 -1 100 3 91 17 -3 5 7 9 23 9 15 0 38 3 51 6 13 4 22 2 22 -5 0 -6
-15 -11 -32 -12 -32 0 -32 -1 -9 -10 27 -11 80 5 94 28 4 7 19 13 33 13 14 0
34 5 45 10 15 9 21 7 25 -5 3 -8 10 -15 15 -15 4 0 6 6 4 13 -5 12 113 57 149
57 9 0 16 5 16 10 0 6 8 10 17 10 9 0 45 16 80 35 35 19 70 35 77 35 7 0 30
11 50 25 34 23 56 26 56 6 0 -12 -89 -53 -100 -46 -5 3 -10 -1 -10 -9 0 -9 -7
-16 -15 -16 -8 0 -15 -4 -15 -9 0 -5 -8 -12 -17 -14 -12 -3 -8 -5 9 -6 15 0
42 8 60 18 18 11 52 24 75 30 22 6 52 20 64 30 20 16 21 21 10 35 -14 16 -12
20 60 109 14 18 28 40 32 50 4 9 16 17 27 17 12 0 20 7 20 16 0 10 -6 14 -15
10 -18 -7 -18 -5 -3 31 6 15 10 32 9 37 -1 4 5 13 14 20 8 6 16 30 19 54 2 23
6 45 9 48 10 10 -4 65 -28 119 -13 28 -26 67 -30 88 -8 40 -20 48 -30 18z
m-3422 -446 c-12 -9 -41 -22 -65 -31 -23 -8 -49 -21 -58 -28 -8 -8 -26 -17
-40 -21 -13 -4 -29 -13 -36 -19 -6 -6 -33 -29 -60 -51 -26 -22 -56 -48 -66
-57 -19 -19 -38 -24 -38 -10 0 11 86 82 99 82 6 0 11 4 11 10 0 5 30 26 68 46
37 21 69 40 72 43 9 11 54 34 80 42 43 13 56 10 33 -6z m3397 -26 c0 -17 -3
-18 -20 -9 -20 11 -25 22 -14 33 11 11 34 -5 34 -24z m-2935 -9 c-3 -5 -13
-10 -21 -10 -8 0 -14 5 -14 10 0 6 9 10 21 10 11 0 17 -4 14 -10z m42 -16 c-3
-3 -12 -4 -19 -1 -8 3 -5 6 6 6 11 1 17 -2 13 -5z m1003 -14 c0 -5 -2 -10 -4
-10 -3 0 -8 5 -11 10 -3 6 -1 10 4 10 6 0 11 -4 11 -10z m-880 -31 c0 -14 -17
-10 -23 5 -4 10 -1 13 9 9 7 -3 14 -9 14 -14z m2713 1 c8 0 8 -3 0 -11 -13
-13 -43 -5 -43 12 0 6 7 8 16 5 9 -3 21 -6 27 -6z m-575 -87 c2 -9 -7 -13 -28
-13 -26 0 -29 2 -18 15 15 17 39 16 46 -2z m-104 -9 c27 -10 7 -24 -35 -24
-44 0 -53 17 -11 23 15 2 28 5 29 6 1 0 8 -2 17 -5z m-254 -30 c0 -2 -24 -3
-52 -3 -43 1 -47 3 -23 8 28 6 75 3 75 -5z m135 6 c4 -6 -19 -9 -62 -9 -60 2
-63 3 -28 9 61 11 83 11 90 0z m-3018 -92 c-3 -8 -6 -5 -6 6 -1 11 2 17 5 13
3 -3 4 -12 1 -19z m-34 -13 c-3 -9 -8 -14 -10 -11 -3 3 -2 9 2 15 9 16 15 13
8 -4z m1980 -12 c-7 -2 -19 -2 -25 0 -7 3 -2 5 12 5 14 0 19 -2 13 -5z m59
-15 c-9 -9 -15 -9 -24 0 -9 9 -7 12 12 12 19 0 21 -3 12 -12z m48 -8 c0 -5 -7
-10 -16 -10 -8 0 -12 5 -9 10 3 6 10 10 16 10 5 0 9 -4 9 -10z m-210 -10 c0
-5 -4 -10 -10 -10 -5 0 -10 5 -10 10 0 6 5 10 10 10 6 0 10 -4 10 -10z m290 1
c0 -14 -38 -24 -52 -14 -9 5 -3 10 17 14 17 4 31 7 33 8 1 0 2 -3 2 -8z m60
-21 c0 -5 -12 -10 -26 -10 -14 0 -23 4 -19 10 3 6 15 10 26 10 10 0 19 -4 19
-10z m20 -81 c0 -5 -7 -9 -15 -9 -8 0 -15 7 -15 15 0 9 6 12 15 9 8 -4 15 -10
15 -15z m140 1 c0 -5 -4 -10 -10 -10 -5 0 -10 5 -10 10 0 6 5 10 10 10 6 0 10
-4 10 -10z m-32 -15 c8 -7 -70 -26 -83 -21 -20 7 -19 24 3 29 15 4 73 -2 80
-8z"/>
<path d="M8209 9327 c-14 -11 -14 -14 -2 -25 7 -7 21 -11 31 -9 14 4 13 6 -6
12 -17 6 -20 10 -11 16 8 4 11 10 9 13 -3 2 -12 -1 -21 -7z"/>
<path d="M8591 9314 c0 -11 3 -14 6 -6 3 7 2 16 -1 19 -3 4 -6 -2 -5 -13z"/>
<path d="M7170 9275 c0 -19 11 -19 36 0 18 14 18 14 -8 15 -18 0 -28 -5 -28
-15z"/>
<path d="M8280 9270 c0 -5 5 -10 11 -10 5 0 7 5 4 10 -3 6 -8 10 -11 10 -2 0
-4 -4 -4 -10z"/>
<path d="M8320 9260 c20 -13 33 -13 25 0 -3 6 -14 10 -23 10 -15 0 -15 -2 -2
-10z"/>
<path d="M8670 9050 c0 -5 5 -10 10 -10 6 0 10 5 10 10 0 6 -4 10 -10 10 -5 0
-10 -4 -10 -10z"/>
<path d="M8640 9026 c0 -9 5 -16 10 -16 6 0 10 4 10 9 0 6 -4 13 -10 16 -5 3
-10 -1 -10 -9z"/>
<path d="M8612 8970 c-16 -25 -15 -30 2 -30 20 0 29 17 19 35 -7 12 -10 11
-21 -5z"/>
<path d="M8560 8820 c0 -5 5 -10 11 -10 5 0 7 5 4 10 -3 6 -8 10 -11 10 -2 0
-4 -4 -4 -10z"/>
<path d="M5530 8790 c0 -5 6 -10 14 -10 8 0 18 5 21 10 3 6 -3 10 -14 10 -12
0 -21 -4 -21 -10z"/>
<path d="M8573 8770 c-22 -9 -43 -39 -43 -62 0 -7 8 -1 18 14 13 20 21 25 29
17 7 -7 12 -3 15 15 3 14 5 26 4 25 0 0 -11 -4 -23 -9z"/>
<path d="M8508 8683 c7 -3 16 -2 19 1 4 3 -2 6 -13 5 -11 0 -14 -3 -6 -6z"/>
<path d="M8435 8640 c-3 -5 1 -10 9 -10 9 0 16 5 16 10 0 6 -4 10 -9 10 -6 0
-13 -4 -16 -10z"/>
<path d="M8388 8613 c-10 -2 -18 -8 -18 -13 0 -10 38 -1 46 11 5 9 1 10 -28 2z"/>
<path d="M6055 8599 c-9 -14 -6 -15 35 -23 l35 -7 -25 20 c-29 24 -36 25 -45
10z"/>
<path d="M8185 8591 c-6 -11 9 -23 19 -14 9 9 7 23 -3 23 -6 0 -12 -4 -16 -9z"/>
<path d="M8335 8580 c-3 -5 -2 -10 4 -10 5 0 13 5 16 10 3 6 2 10 -4 10 -5 0
-13 -4 -16 -10z"/>
<path d="M8138 8573 c7 -3 16 -2 19 1 4 3 -2 6 -13 5 -11 0 -14 -3 -6 -6z"/>
<path d="M6155 8550 c3 -5 8 -10 11 -10 2 0 4 5 4 10 0 6 -5 10 -11 10 -5 0
-7 -4 -4 -10z"/>
<path d="M8065 8551 c-3 -5 -1 -12 5 -16 5 -3 10 1 10 9 0 18 -6 21 -15 7z"/>
<path d="M8183 8550 c-26 -10 -31 -40 -8 -40 8 0 15 4 15 9 0 5 9 7 19 4 16
-4 19 -1 14 16 -6 23 -8 24 -40 11z"/>
<path d="M8240 8550 c0 -5 5 -10 11 -10 5 0 7 5 4 10 -3 6 -8 10 -11 10 -2 0
-4 -4 -4 -10z"/>
<path d="M8115 8530 c-3 -5 1 -10 9 -10 9 0 16 5 16 10 0 6 -4 10 -9 10 -6 0
-13 -4 -16 -10z"/>
<path d="M6237 8523 c-14 -13 -6 -23 31 -39 20 -10 40 -18 44 -18 3 -1 9 -4
13 -8 4 -4 13 -4 21 -1 8 3 14 0 14 -6 0 -6 8 -11 17 -11 26 0 -25 45 -61 54
-16 4 -35 14 -43 21 -16 16 -26 19 -36 8z"/>
<path d="M8013 8503 c-15 -5 -18 -53 -4 -53 5 0 11 12 14 28 6 31 6 31 -10 25z"/>
<path d="M7950 8475 c-7 -8 -22 -15 -33 -15 -31 0 -10 -15 24 -16 24 -1 29 2
29 22 0 28 -3 29 -20 9z"/>
<path d="M4857 8463 c-4 -3 -7 -15 -7 -25 0 -26 24 -17 28 10 3 21 -8 29 -21
15z"/>
<path d="M7820 8451 c0 -5 -8 -12 -17 -14 -14 -4 -12 -5 5 -6 25 -1 31 -21 5
-21 -13 0 -14 -3 -5 -12 9 -9 17 -7 34 9 13 11 30 23 38 26 10 4 7 6 -7 6 -13
1 -23 6 -23 11 0 6 -7 10 -15 10 -8 0 -15 -4 -15 -9z"/>
<path d="M7705 8441 c-3 -5 0 -13 6 -17 7 -4 9 -3 5 4 -3 5 0 13 6 15 9 4 10
6 1 6 -6 1 -14 -3 -18 -8z"/>
<path d="M7745 8440 c3 -5 10 -10 16 -10 5 0 9 5 9 10 0 6 -7 10 -16 10 -8 0
-12 -4 -9 -10z"/>
<path d="M7150 8430 c0 -6 7 -13 15 -16 8 -4 13 -10 10 -14 -6 -10 15 -70 25
-70 13 0 32 29 25 40 -3 5 -13 10 -21 10 -8 0 -14 5 -14 11 0 7 11 9 27 6 32
-6 143 13 143 25 0 11 -45 10 -100 -3 -37 -8 -46 -7 -56 5 -13 18 -54 22 -54
6z"/>
<path d="M7450 8430 c-8 -5 -11 -12 -7 -16 4 -4 13 -2 19 4 15 15 7 24 -12 12z"/>
<path d="M8021 8424 c0 -11 3 -14 6 -6 3 7 2 16 -1 19 -3 4 -6 -2 -5 -13z"/>
<path d="M4586 8422 c-2 -4 -1 -14 5 -22 7 -12 9 -10 9 8 0 23 -5 28 -14 14z"/>
<path d="M7370 8420 c0 -5 9 -10 19 -10 11 0 23 5 26 10 4 6 -5 10 -19 10 -14
0 -26 -4 -26 -10z"/>
<path d="M7760 8399 c0 -5 5 -7 10 -4 6 3 10 8 10 11 0 2 -4 4 -10 4 -5 0 -10
-5 -10 -11z"/>
<path d="M7485 8390 c-3 -5 1 -10 10 -10 9 0 13 5 10 10 -3 6 -8 10 -10 10 -2
0 -7 -4 -10 -10z"/>
<path d="M7675 8389 c-18 -7 -17 -8 7 -8 14 -1 33 -4 42 -7 10 -4 16 -1 16 9
0 16 -32 19 -65 6z"/>
<path d="M4631 8354 c0 -11 3 -14 6 -6 3 7 2 16 -1 19 -3 4 -6 -2 -5 -13z"/>
<path d="M6770 8320 c0 -5 17 -10 38 -9 33 1 34 2 12 9 -36 11 -50 11 -50 0z"/>
<path d="M6888 8293 c7 -3 16 -2 19 1 4 3 -2 6 -13 5 -11 0 -14 -3 -6 -6z"/>
<path d="M4842 7983 l3 -168 28 -3 c26 -3 27 -2 27 45 0 26 5 55 10 63 8 12
10 10 10 -9 0 -13 5 -41 12 -62 9 -33 15 -39 40 -39 l28 0 0 170 0 170 -30 0
-30 0 0 -62 c0 -72 -15 -64 -25 14 -7 47 -8 48 -41 48 l-34 0 2 -167z"/>
<path d="M5146 8083 c-4 -38 -11 -109 -17 -160 -6 -50 -8 -96 -5 -102 4 -6 18
-11 32 -11 17 0 24 6 24 19 0 23 28 48 39 35 5 -5 11 -18 13 -29 2 -13 12 -21
32 -23 l28 -4 -6 94 c-4 51 -12 128 -18 171 l-10 77 -53 0 -53 0 -6 -67z m73
-115 c1 -38 -2 -48 -15 -48 -14 0 -16 8 -10 46 3 26 6 56 7 68 1 43 18 -16 18
-66z"/>
<path d="M5406 8135 c-9 -25 -7 -298 3 -313 4 -8 19 -12 32 -10 l24 3 0 165 0
165 -26 3 c-17 2 -29 -3 -33 -13z"/>
<path d="M5600 8145 c-1 -3 -1 -78 -1 -167 l-1 -163 31 -3 31 -3 0 76 c0 57 3
76 13 73 8 -3 13 -30 15 -77 3 -72 3 -72 30 -69 26 3 27 5 30 70 2 37 -2 77
-8 88 -8 14 -8 25 -1 33 10 13 15 46 13 89 -3 43 -26 58 -93 58 -32 0 -59 -2
-59 -5z m90 -91 c0 -15 -6 -24 -15 -24 -15 0 -21 40 -9 53 12 11 24 -3 24 -29z"/>
<path d="M5895 8125 c-41 -40 -34 -86 20 -144 45 -48 63 -96 35 -96 -8 0 -17
11 -20 25 -4 18 -13 25 -30 25 -23 0 -25 -4 -24 -43 1 -51 18 -71 65 -78 56
-9 84 20 84 89 0 51 -3 58 -47 105 -27 28 -48 56 -48 61 0 20 20 21 32 1 13
-21 34 -25 56 -12 10 7 10 15 2 37 -22 58 -83 73 -125 30z"/>
<path d="M6340 7980 l0 -170 63 0 c35 0 66 3 69 6 3 3 3 17 -1 32 -6 21 -14
28 -39 30 -29 3 -32 6 -32 37 0 31 3 34 32 37 27 2 33 7 33 28 0 20 -6 26 -30
30 -27 4 -30 9 -30 40 0 32 3 35 33 38 28 3 32 7 32 33 l0 29 -65 0 -65 0 0
-170z"/>
<path d="M6594 8137 c-2 -7 -3 -82 -2 -167 l3 -155 28 -3 27 -3 0 66 c0 44 4
67 13 69 6 3 24 7 39 10 30 7 48 47 48 108 0 58 -34 88 -100 88 -32 0 -52 -5
-56 -13z m94 -91 c-2 -11 -11 -22 -20 -24 -14 -3 -18 3 -18 26 0 16 3 32 7 35
11 12 34 -15 31 -37z"/>
<path d="M6865 8138 c-3 -8 -4 -83 -3 -168 l3 -155 30 0 30 0 0 165 0 165 -28
3 c-16 2 -29 -2 -32 -10z"/>
<path d="M7075 8125 c-24 -23 -25 -30 -25 -145 0 -115 1 -122 25 -145 26 -27
46 -31 76 -14 14 7 24 7 33 0 23 -20 31 7 28 98 l-3 91 -34 0 c-37 0 -51 -20
-35 -50 11 -21 13 -73 3 -83 -3 -4 -12 -2 -20 4 -18 16 -18 182 0 198 16 13
27 5 27 -21 0 -13 8 -18 30 -18 27 0 30 3 30 30 0 41 -39 80 -80 80 -19 0 -40
-9 -55 -25z"/>
<path d="M7340 7980 l0 -171 63 3 c62 3 62 3 62 33 0 25 -5 31 -30 35 -25 4
-30 10 -30 35 0 25 5 31 30 35 24 4 31 11 33 33 3 24 0 27 -28 27 -34 0 -45
17 -36 55 5 20 13 25 36 25 27 0 30 3 30 30 l0 30 -65 0 -65 0 0 -170z"/>
<path d="M7592 7983 l3 -168 28 -3 c27 -3 27 -3 27 60 1 58 2 61 15 44 8 -11
15 -31 15 -44 0 -37 18 -62 45 -62 l25 0 0 170 0 170 -30 0 -30 0 -1 -62 -1
-63 -16 63 c-15 61 -16 62 -49 62 l-33 0 2 -167z"/>
<path d="M7880 7980 l0 -171 68 3 c62 3 67 5 70 27 4 26 -12 41 -44 41 -45 0
-41 67 4 72 21 2 28 9 30 31 3 23 0 27 -21 27 -14 0 -30 7 -37 15 -20 24 3 65
35 65 21 0 25 5 25 30 l0 30 -65 0 -65 0 0 -170z"/>
<path d="M8130 8121 c0 -20 6 -30 20 -34 18 -5 20 -15 22 -138 l3 -134 28 -3
27 -3 0 136 c0 128 1 137 20 142 14 4 20 14 20 34 l0 29 -70 0 -70 0 0 -29z"/>
<path d="M8384 8137 c-2 -7 -3 -82 -2 -167 l3 -155 28 0 c15 0 27 3 27 8 0 4
0 79 0 167 l0 160 -25 0 c-14 0 -28 -6 -31 -13z"/>
<path d="M8597 8130 c-27 -21 -27 -22 -27 -149 0 -117 2 -130 21 -147 13 -12
35 -19 61 -19 55 0 80 31 76 94 -3 40 -6 46 -27 49 -28 4 -41 -12 -41 -51 0
-19 -4 -27 -12 -24 -9 2 -13 32 -13 102 0 70 4 100 13 103 7 2 12 -6 12 -21 0
-44 8 -54 40 -49 27 4 30 8 30 42 0 48 -25 79 -70 86 -27 4 -42 1 -63 -16z"/>
<path d="M4234 7523 c4 -49 13 -124 19 -168 l12 -80 35 0 c33 0 35 2 43 45 13
74 21 78 27 15 5 -57 6 -60 33 -63 40 -5 57 14 57 62 0 23 4 67 9 97 5 30 12
82 15 117 l6 62 -30 0 c-25 0 -30 -4 -34 -32 -3 -18 -9 -58 -13 -88 l-9 -55
-8 88 -8 88 -31 -3 -32 -3 -5 -80 c-5 -74 -6 -78 -18 -52 -6 16 -12 53 -12 83
0 54 0 54 -31 54 l-32 0 7 -87z"/>
<path d="M4612 7443 l3 -168 63 -3 63 -3 -3 33 c-3 28 -8 34 -33 38 -25 4 -30
10 -30 35 0 25 5 31 30 35 24 4 31 11 33 33 3 24 0 27 -27 27 -31 0 -33 3 -33
40 0 37 2 40 32 40 27 0 30 3 30 30 l0 30 -65 0 -65 0 2 -167z"/>
<path d="M4869 7483 c-1 -71 -2 -141 -3 -158 -2 -46 10 -55 75 -55 59 0 59 0
59 29 0 26 -4 30 -32 33 l-33 3 -3 138 -3 137 -29 0 -30 0 -1 -127z"/>
<path d="M5112 7443 l3 -168 65 0 c63 0 65 1 65 25 0 21 -5 26 -32 28 l-32 3
-3 137 -3 137 -33 3 -32 3 2 -168z"/>
<path d="M5367 7603 c-10 -9 -8 -306 2 -321 4 -8 19 -12 32 -10 22 3 24 8 25
56 0 28 3 54 6 57 3 3 12 -20 19 -52 12 -51 17 -58 40 -61 15 -2 28 2 30 10 2
7 3 84 1 171 l-3 157 -29 0 c-30 0 -30 0 -31 -62 l-1 -63 -16 63 c-14 57 -18
62 -42 62 -15 0 -30 -3 -33 -7z"/>
<path d="M5652 7443 l3 -168 65 0 65 0 0 30 c0 27 -4 30 -32 33 -30 3 -33 6
-33 37 0 29 4 34 28 37 21 2 28 9 30 30 3 23 -1 27 -25 30 -25 3 -28 7 -28 38
0 31 3 35 28 38 23 3 27 8 27 33 l0 29 -65 0 -65 0 2 -167z"/>
<path d="M5927 7592 c-37 -40 -26 -101 28 -159 26 -27 45 -58 45 -70 0 -33
-28 -29 -32 5 -3 23 -8 27 -33 27 -29 0 -30 -2 -27 -40 4 -51 31 -79 76 -79
54 0 76 27 76 89 0 48 -4 57 -45 103 -42 46 -57 82 -36 82 5 0 15 -10 23 -21
10 -16 20 -20 36 -15 28 9 28 36 1 70 -25 32 -86 37 -112 8z"/>
<path d="M6200 7590 c-13 -13 -20 -33 -20 -60 0 -33 8 -48 45 -90 27 -31 45
-60 45 -75 0 -35 -28 -32 -32 3 -2 21 -9 28 -30 30 -26 3 -28 1 -28 -36 0 -54
27 -86 71 -86 52 0 67 10 80 53 16 54 6 84 -48 142 -32 35 -43 54 -39 66 7 16
9 16 25 -6 23 -31 55 -25 59 11 7 59 -83 93 -128 48z"/>
<path d="M6669 7591 c-23 -18 -24 -25 -24 -145 0 -116 2 -127 22 -148 28 -28
84 -29 113 -3 18 16 20 30 20 146 0 119 -2 130 -22 149 -28 25 -78 26 -109 1z
m71 -151 c0 -82 -3 -100 -15 -100 -12 0 -15 18 -15 100 0 82 3 100 15 100 12
0 15 -18 15 -100z"/>
<path d="M6932 7443 l3 -168 25 0 c24 0 25 3 28 68 3 63 4 67 26 67 13 0 34 9
47 19 20 16 24 28 24 79 0 83 -18 102 -97 102 l-58 0 2 -167z m90 67 c2 -16
-3 -25 -14 -28 -14 -3 -18 3 -18 26 0 50 26 52 32 2z"/>
<path d="M7231 7591 c-26 -26 -34 -72 -30 -180 5 -106 22 -135 84 -135 47 0
73 28 81 86 6 44 5 47 -19 53 -36 9 -47 0 -47 -41 0 -24 -5 -34 -15 -34 -13 0
-15 16 -13 103 3 99 17 136 28 72 4 -24 11 -31 33 -33 17 -2 29 2 33 11 9 24
-15 96 -36 107 -30 16 -78 12 -99 -9z"/>
<path d="M7672 7443 l3 -168 30 0 30 0 3 66 3 67 34 6 c46 9 58 35 53 109 -6
74 -20 87 -100 87 l-58 0 2 -167z m96 69 c2 -24 -1 -32 -12 -32 -12 0 -16 10
-16 36 0 45 24 42 28 -4z"/>
<path d="M7945 7563 c4 -27 13 -99 20 -162 7 -62 18 -118 23 -123 5 -5 25 -8
43 -6 39 4 41 9 59 158 6 52 13 114 17 138 5 41 5 42 -25 42 l-29 0 -12 -92
c-12 -89 -21 -125 -21 -80 0 12 -5 55 -11 97 -11 74 -12 75 -41 75 l-30 0 7
-47z"/>
<path d="M8220 7581 c0 -20 6 -30 20 -34 18 -5 20 -15 22 -138 l3 -134 30 0
30 0 3 138 c2 113 5 137 17 137 10 0 15 10 15 30 l0 30 -70 0 -70 0 0 -29z"/>
<path d="M8668 7449 c-2 -89 0 -165 3 -171 3 -5 32 -8 65 -6 55 3 59 5 59 28
0 20 -6 26 -30 30 l-30 5 -3 138 -3 137 -29 0 -29 0 -3 -161z"/>
<path d="M8900 7580 c0 -23 4 -30 20 -30 18 0 20 -8 22 -137 l3 -138 30 0 30
0 3 136 c2 127 4 137 22 142 14 3 20 14 20 31 0 26 -1 26 -75 26 l-75 0 0 -30z"/>
<path d="M9162 7443 l3 -168 44 -3 c67 -5 97 12 111 63 17 62 10 214 -13 248
-16 25 -23 27 -82 27 l-65 0 2 -167z m93 -1 c0 -140 -19 -139 -23 1 -2 85 0
108 10 105 9 -3 13 -32 13 -106z"/>
</g>
</svg>
